<?xml version="1.0" encoding="utf-8"?>
<!-- Generator: Adobe Illustrator 23.0.1, SVG Export Plug-In . SVG Version: 6.00 Build 0)  -->
<svg version="1.1" id="Layer_1" xmlns="http://www.w3.org/2000/svg" xmlns:xlink="http://www.w3.org/1999/xlink" x="0px" y="0px"
	 viewBox="0 0 1000 1000" style="enable-background:new 0 0 1000 1000;" xml:space="preserve">
<style type="text/css">
	.st0{fill-rule:evenodd;clip-rule:evenodd;fill:#F15C61;}
</style>
<path class="st0" d="M526,426.2c0,10.7-8.6,19.3-19.3,19.3c-10.7,0-19.3-8.6-19.3-19.3s8.6-19.3,19.3-19.3
	c10.6,0,19.3,8.6,19.3,19.2C526,426.1,526,426.1,526,426.2z M446.3,465v4.8c-7.4-8-17.9-12.3-28.7-11.9
	c-31.4-0.3-57.2,24.9-57.5,56.3c0,0.9,0,1.7,0,2.6c-1.1,31.4,23.5,57.8,54.9,58.9c0.9,0,1.7,0,2.6,0c10.9,0.5,21.5-4,28.7-12.2v5.1
	c0,2.3,1.8,4.1,4,4.1c0,0,0.1,0,0.1,0h24.1v-112h-23.9c-2.3,0.1-4.1,1.9-4.1,4.1L446.3,465z M446.3,536.7
	c-5.6,7.7-14.6,12.3-24.1,12.2c-19,0-33.6-11.9-33.6-32.1c0-20.2,14.5-32.1,33.6-32.1c9.5,0.1,18.4,4.6,24.1,12.2V536.7L446.3,536.7
	z M492.3,460.9h28.8v111.8h-28.8v-112V460.9z M918.7,457.9c-10.9-0.4-21.4,3.9-28.7,11.9V407h-28.8v165.6h24.1
	c2.3-0.1,4.1-1.9,4.1-4.1v-5.1c7.3,8.1,17.8,12.6,28.7,12.2c31.5,0.2,57.3-25.1,57.5-56.7c0-0.7,0-1.5,0-2.2
	c1-31.5-23.7-57.8-55.2-58.9c-0.8,0-1.6,0-2.3,0L918.7,457.9z M913.9,548.6c-9.5,0.1-18.6-4.4-24.1-12.2v-39.9
	c5.9-7.4,14.7-11.9,24.1-12.2c19,0,33.6,11.9,33.6,32.1S932.9,548.5,913.9,548.6L913.9,548.6z M846.7,506.4v66.6h-28.8v-63.3
	c0-18.5-5.8-25.9-22-25.9c-8.9,0.3-17.2,4.3-23,11v77.9h-28.8v-112h22.6c2.3,0.1,4.1,1.9,4.1,4.1v4.8c8-8,19-12.3,30.3-11.9
	c11.4-0.4,22.5,3.4,31.2,10.7c10.1,8.3,14,19,14,37.8L846.7,506.4z M675.1,457.9c-10.9-0.4-21.4,3.9-28.7,11.9v-62.7h-28.8v165.6
	h24.1c2.3-0.1,4.1-1.9,4.1-4.1v-5.1c7.3,8.1,17.8,12.6,28.8,12.2c31.5,0.2,57.3-25.1,57.5-56.7c0-0.7,0-1.5,0-2.2
	c1.2-31.3-23.2-57.6-54.5-58.8c-1,0-2-0.1-3,0L675.1,457.9z M670.3,548.6c-9.5,0.1-18.6-4.4-24.1-12.2v-39.9
	c5.9-7.4,14.7-11.9,24.1-12.2c19,0,33.6,11.9,33.6,32.1S689.4,548.5,670.3,548.6L670.3,548.6z M592.9,457.9
	c4.4-0.1,8.8,0.4,13.1,1.5v26.5c0,0-23.9-7.9-38.6,8.9v78.2h-28.8V460.7h24.1c2.3,0.1,4.1,1.9,4.1,4.1v4.8
	c6.8-7.1,16.1-11.3,25.9-11.9L592.9,457.9z M296.4,562.5l-4.5-10.7l-6.8-15.2l-0.3-0.3C264,491,242.1,446.2,219.1,402l-0.9-1.7
	l-7.1-14.3c-2.9-5.8-6.5-11.3-10.7-16.3c-9.2-11.6-23.3-18.3-38.1-18.2c-14.7,0-28.6,6.6-38.1,17.8c-4.1,5.1-7.7,10.6-10.7,16.3
	l-8,15.8c-23,44.6-45.2,89.8-65.7,134.4l-0.3,0.6c-1.7,4.9-4.1,9.9-6.6,15.2c-1.5,3.3-3,6.8-4.5,10.7c-3.8,10.2-5,21.3-3.6,32.1
	c3.3,22.1,17.9,40.9,38.6,49.3c7.6,3.2,15.8,4.8,24.1,4.8c2.6,0,5.2-0.2,7.7-0.6c10.5-1.3,20.6-4.8,29.7-10.1
	c13.9-8.3,26.3-18.7,36.9-30.9c10.6,12.2,23,22.6,36.9,30.9c9.1,5.3,19.2,8.8,29.7,10.1c2.6,0.3,5.1,0.5,7.7,0.6
	c8.3,0.1,16.5-1.5,24.1-4.8c20.7-8.5,35.4-27.2,38.6-49.3c2.2-10.6,1.3-21.7-2.7-31.8L296.4,562.5z M162.3,578
	c-16-20.2-26.5-39.2-30-55.3c-1.5-5.9-1.8-12.1-0.9-18.1c0.6-4.5,2.2-8.7,4.8-12.5c6-8.4,15.8-13.3,26.2-13.1
	c10.4-0.4,20.2,4.5,26.2,13.1c2.5,3.7,4.2,8,4.8,12.5c0.9,6,0.5,12.2-0.9,18.1C188.8,538.4,178.4,557.1,162.3,578L162.3,578z
	 M281,592c-2.3,15.5-12.6,28.6-27.1,34.5c-7.1,3-14.9,4.1-22.5,3.3c-8-1-15.7-3.6-22.6-7.7c-12.8-7.7-24.2-17.4-33.9-28.7
	c19.6-24.1,31.5-46.1,36-65.7c1.9-8.3,2.4-16.8,1.5-25.3c-1.1-7.3-3.9-14.2-8-20.2c-9.6-13.7-25.3-21.7-42-21.3
	c-16.6-0.2-32.2,7.7-41.9,21.1c-4.2,6-6.9,13-8,20.2c-1.3,8.4-0.7,17.1,1.5,25.3c4.5,19.6,16.7,41.9,36,66
	c-9.6,11.4-21.1,21.1-33.9,28.7c-6.9,4.2-14.6,6.9-22.7,7.9c-7.7,0.9-15.4-0.2-22.6-3c-14.5-5.9-24.8-19-27.1-34.5
	c-0.9-7.8,0-15.7,2.7-23c0.9-3,2.4-5.8,3.8-9.5c2.1-4.8,4.5-9.8,6.8-14.9l0.3-0.6c20.5-44.4,42.5-89.5,65.5-133.5l0.9-2.1l7.1-13.7
	c2.3-4.7,5.2-9.1,8.6-13.2c11.2-13.1,30.9-14.7,44-3.5c1.3,1.1,2.5,2.3,3.5,3.5c3.2,4,5.9,8.4,8.1,13.1l7.1,13.7l0.9,1.7
	c22.6,44.3,44.7,89.5,65.2,133.8v0.3c2.4,4.8,4.5,10.1,6.8,14.9c1.5,3.6,3,6.6,3.8,9.5C281.3,576.4,282,584.3,281,592L281,592z"/>
</svg>
