<?xml version="1.0" encoding="utf-8"?>
<!-- Generator: Adobe Illustrator 23.0.1, SVG Export Plug-In . SVG Version: 6.00 Build 0)  -->
<svg version="1.1" id="Layer_1" xmlns="http://www.w3.org/2000/svg" xmlns:xlink="http://www.w3.org/1999/xlink" x="0px" y="0px"
	 viewBox="0 0 1000 1000" enable-background="new 0 0 1000 1000" xml:space="preserve">
<g>
	<path d="M244.5,510.3c-0.4-41.4,33.8-61.2,35.3-62.2c-19.2-28.1-49.1-32-59.8-32.4c-25.4-2.6-49.6,15-62.6,15s-32.8-14.6-53.9-14.2
		c-27.8,0.4-53.4,16.1-67.7,41c-28.8,49.9-7.3,124.1,20.8,164.6c13.8,19.8,30.1,42.2,51.6,41.4c20.7-0.8,28.5-13.4,53.5-13.4
		s32.1,13.4,53.9,13c22.3-0.4,36.4-20.3,50-40.2c15.7-23.1,22.2-45.3,22.6-46.5C287.9,576.1,245,559.7,244.5,510.3"/>
	<path d="M203.4,388.8c11.4-13.8,19.1-33,17-52.2c-16.4,0.7-36.4,11-48.1,24.8c-10.6,12.2-19.8,31.8-17.3,50.6
		C173.2,413.3,192,402.6,203.4,388.8 M388.7,550.9l-18.9,57.4h-24.3L407.4,426h28.4L498,608.3h-25.2l-19.5-57.4H388.7z M448.5,532.5
		L430.6,480c-4.1-11.9-6.7-22.7-9.5-33.3h-0.5c-2.7,10.8-5.7,21.9-9.2,33l-17.8,52.7L448.5,532.5z M516.4,520.1
		c0-16.8-0.5-30.3-1.1-42.7h21.4l1.1,22.5h0.5c9.7-16,25.2-25.4,46.5-25.4c31.7,0,55.4,26.8,55.4,66.6c0,47.1-28.7,70.3-59.5,70.3
		c-17.3,0-32.5-7.6-40.3-20.5H540v71.1h-23.5V520.1z M539.9,555c0,3.5,0.5,6.7,1.1,9.7c4.3,16.5,18.7,27.9,35.7,27.9
		c25.2,0,39.8-20.5,39.8-50.6c0-26.3-13.8-48.7-39-48.7c-16.2,0-31.3,11.6-36,29.5c-0.8,3-1.6,6.5-1.6,9.7L539.9,555L539.9,555z
		 M664.9,520.1c0-16.8-0.5-30.3-1.1-42.7h21.4l1.1,22.5h0.5c9.7-16,25.2-25.4,46.5-25.4c31.7,0,55.4,26.8,55.4,66.6
		c0,47.1-28.7,70.3-59.5,70.3c-17.3,0-32.5-7.6-40.3-20.5h-0.5v71.1h-23.5V520.1z M688.4,555c0,3.5,0.5,6.7,1.1,9.7
		c4.3,16.5,18.7,27.9,35.7,27.9c25.2,0,39.8-20.5,39.8-50.6c0-26.3-13.8-48.7-39-48.7c-16.2,0-31.3,11.6-36,29.5
		c-0.8,3-1.6,6.5-1.6,9.7L688.4,555L688.4,555z M813.4,416.2h23.8v192h-23.8V416.2z M885.1,547.1c0.5,32.2,21.1,45.5,44.9,45.5
		c17,0,27.3-3,36.2-6.7l4.1,17c-8.4,3.8-22.7,8.1-43.5,8.1c-40.3,0-64.4-26.5-64.4-66s23.3-70.6,61.4-70.6
		c42.7,0,54.1,37.6,54.1,61.7c0,4.9-0.5,8.6-0.8,11.1L885.1,547.1L885.1,547.1z M954.9,530.1c0.3-15.1-6.2-38.7-33-38.7
		c-24.1,0-34.6,22.2-36.5,38.7H954.9z"/>
</g>
</svg>
