<svg id="Layer_1" data-name="Layer 1" xmlns="http://www.w3.org/2000/svg" viewBox="0 0 1000 1000"><path d="M212.38,463v26.67h64.09c-3.18,37.22-34.43,53.14-64.09,53.14-37.82,0-70.86-29.45-70.86-70.86,0-40.2,31.45-71.25,70.86-71.25,30.45,0,48.37,19.3,48.37,19.3l18.71-19.3S255.37,374,211.38,374c-56.13,0-99.32,46.78-99.32,97.34,0,49.56,40.8,97.93,100.72,97.93,52.74,0,91.36-35.83,91.36-88.78a82.92,82.92,0,0,0-1.59-17.71ZM377,443.87c-37.22,0-63.7,28.66-63.7,62.3,0,34,25.88,63.3,64.1,63.3,34.63,0,63.1-26.28,63.1-62.5C440.68,465.17,407.64,443.87,377,443.87Zm.4,24.48c18.31,0,35.63,14.53,35.63,38.22,0,23.09-17.32,38-35.63,38-20.31,0-36.23-16.13-36.23-38.22C341.16,484.67,356.89,468.35,377.39,468.35Zm138.33-24.48c-37.22,0-63.69,28.66-63.69,62.3,0,34,25.88,63.3,64.09,63.3,34.64,0,63.1-26.28,63.1-62.5C579.22,465.17,546.18,443.87,515.72,443.87Zm.4,24.48c18.32,0,35.63,14.53,35.63,38.22,0,23.09-17.32,38-35.63,38-20.3,0-36.22-16.13-36.22-38.22C479.7,484.67,495.42,468.35,516.12,468.35Zm135.55-24.48c-34,0-60.9,29.46-60.9,62.7,0,37.82,31.05,62.9,60.31,62.9,18.11,0,27.66-7.17,34.83-15.33v12.34c0,21.7-13.34,34.64-33.24,34.64-19.31,0-29.06-14.34-32.45-22.3L595.94,589c8.56,18.12,26.08,37,56.93,37,33.84,0,59.71-21.1,59.71-65.49V447.65H685.91V458.2c-8.36-8.76-19.51-14.33-34.24-14.33Zm2.39,24.68c16.72,0,33.84,14.13,33.84,38.22,0,24.48-17.12,38-34.24,38-18.11,0-35-14.53-35-37.82,0-24.09,17.52-38.42,35.43-38.42Zm176.56-24.88c-32,0-59.12,25.28-59.12,62.7,0,39.61,30.06,62.9,62.3,62.9,26.87,0,43.19-14.53,53.15-27.47l-21.9-14.53c-5.77,8.76-15.13,17.32-31,17.32-17.91,0-26.08-9.76-31-19.11l85-34.84-4.38-10.15c-8.56-20.1-27.67-36.82-52.94-36.82Zm1,24.08c11.55,0,19.91,6.17,23.49,13.34l-56.73,23.49C796,486.46,813.3,467.75,831.61,467.75ZM730.89,565.69h27.87V380.57H730.89Z"/></svg>