<?xml version="1.0" encoding="utf-8"?>
<!-- Generator: Adobe Illustrator 24.2.0, SVG Export Plug-In . SVG Version: 6.00 Build 0)  -->
<svg version="1.1" id="Layer_1" xmlns="http://www.w3.org/2000/svg" xmlns:xlink="http://www.w3.org/1999/xlink" x="0px" y="0px"
	 viewBox="0 0 1000 1000" style="enable-background:new 0 0 1000 1000;" xml:space="preserve">
<style type="text/css">
	.st0{fill:#ED1A3B;}
</style>
<g>
	<g>
		<g>
			<g>
				<g>
					<g>
						<path class="st0" d="M104.4,476.5c24.1-44.6,65.8-93.3,115-109.6c10.1-2.5,23.5-5.4,32.5,1.6c8,5.9,9,16,7.2,25.1
							c-2.4,10.8-9.7,24.4-22.1,26.1c-2.2,0-4.1-0.8-5.5-2.3c-3.2-3.1-3-7.7-2.3-11.8c2-8.5,9.9-17.6,19-18.8c1.6-1,0.9-2.9,0.5-4.2
							c-1.2-1.9-2.6-3.3-4.9-3.8c-9.9-1.1-17.3,5-24.9,10.2c-28.7,23.1-49.6,52.8-67.1,82.3c-14.3,26.6-26.5,54.1-30,85.1
							c-1.7,22.5,5.4,44.6,25.4,55.5c21.7,11.5,49.8,3.7,71.6-2.2l20-6.1l38.4-11.4c36.4-10.6,82.1-13,117.6,1.1
							c21.5,9,43.7,21.2,57.7,42.4c0,0.6,0,1.2-0.7,1.1c-30.5-8.3-70.2-16.6-100.4-2.1l-1.4-0.3c-9.2-14.7-24.7-22.8-40.5-26
							c-51.3-5-93.4,19.3-141.6,25.4c-24.4,2.2-50.6,1.5-67.6-17.2c-26.9-26.8-23.7-74.2-10.9-106.6
							C93.5,498.4,98.7,487.3,104.4,476.5z"/>
						<path class="st0" d="M175.1,492.5c12.7-23.4,32.3-51.9,59.2-60.5c7.2-1.6,15-0.9,20.5,3.8c11.6,11.6,7.1,31.4,3.2,45.1
							c0,0.8,0.7,1.7,1.4,1.8c10.3-0.3,18.7-5.1,26.1-12.2c16-17.9,33.2-41.4,59.3-38.6c4.9,0.8,9.6,3.6,12.2,8.1
							c6.6,13.1,0.1,27.6-8.9,37.7c-3.5,3.3-7.8,5.9-12.8,4.3c-2-0.7-3.7-2.7-4.4-4.7c-1.9-9.2,3.5-17.7,11-22.6
							c2.1-2.1,8.5-0.6,6.8-5.4c-1.3-1.9-3.3-2.1-5.4-2.1c-12.7,5.3-20.9,18.2-28.3,29.1c-9.3,14.5-16.8,29.9-21.7,46.2
							c-1.4,5.9-3,13.5,0.4,19c2.5,3.4,6.8,4.9,11.1,3.8c12.6-5,23.6-15,33.2-25.4c22-26.3,33.6-58.9,63-80.3
							c9.1-6.3,22-11.1,33-5.3c1.8,0.7,3.2,3,5.4,2.1c1.8-1.8,3-5.5,6.6-4.6c8.1,0.1,17.4-0.3,25.7,0.5l0.6,0.8l-2.3,5.6l-45.6,92.6
							c-0.4,1-0.6,2.3-0.3,3.4c0.8,1.3,2.4,1.2,3.7,0.8c6.6-3.8,11.7-10.7,16.3-16.6c4-5.5,7.6-11.3,10.5-17.4
							c1.2-1.8,2.7-4,5.1-3.6c2.6,0.3,5.8-0.8,7.7,1c-2.9,7.8-7.5,14.8-11.5,22.2c-12.4,19-28.6,41.2-51.3,46.9
							c-3.8,0.4-8.4,0.7-11.3-2c-4.4-3.3-4.6-8.7-5.8-13.4c-0.4-0.6-1.2-0.7-1.9-0.5c-9.7,8.7-19.7,17.5-33.3,15.8
							c-4.2-0.9-8.2-4.1-10.1-8.1c-3.5-6.8-1.8-15.5-2-23.1c-0.3-0.9-1.4-0.6-1.9-0.2C323,550.8,307,564,287.4,567.7
							c-9.1,1.1-17-1.6-23.1-8.1c-14.7-19.3-3.1-44.5,4.7-63.2c0.3-0.9,0.2-2.1-0.9-2.3c-5.3,0.4-10.4,1.3-15.5,2.1l-1.8,2
							c-12,22.2-24.9,45.6-46.4,62.1c-8.9,6.4-22.1,10.8-32.5,4.9c-10.9-7.5-11.8-20.8-10.4-33.1C164,518,169.1,505,175.1,492.5z
							 M209.1,491.4c-6.3,12.6-12.6,25.4-12.9,40.3c0.7,2.8,2.3,6,5.4,6.8c3.3,0.9,6.1-0.9,8.7-2.5c12.2-10.3,20.7-24.3,27.7-37.9
							c0.6-1.3,1.6-3,0.8-4.4c-7.3-2.9-14.4-7.9-20-14.3l-1.2-0.2c-1.1,0.2-1.6,1.3-2.3,2.1L209.1,491.4z M228.1,465.7
							c0.4,6.7,6.6,12.5,12.5,14.7c1.4,0.4,3.8,1.6,5-0.2c2.2-4.2,3.6-8.9,4.7-13.5c1.1-6.1,2-14.3-3.8-18.3c-2-1.1-5-1.2-7.1-0.2
							C232.7,451.4,227.9,458.2,228.1,465.7z M378.4,517.4c-1.7,5.5-4.3,11.5-2.5,17.6c0.5,1.2,1.9,2.1,3.1,2.5
							c5,0.1,8.3-4.4,11.6-8c14.6-20.3,25.8-42.1,35.8-64.2c1.7-4.7,4.4-9,4.3-14.2c-0.1-1.1-1.2-1.9-2.1-2.4
							c-2.2-1-4.3,0.5-6.1,1.4c-19.7,15.1-30.3,36.9-40.1,57.5L378.4,517.4z"/>
						<path class="st0" d="M473.3,460.5c4.4-8.6,8-17.6,13.5-25.8c2.2-2.4,5.7-2.3,8.7-2.6l21.9,0.3l0.9,0.9
							c-3.7,8.8-7.7,17.4-12.3,25.8c-1.1,2.2-3.5,4.3-6,4.6c-8.9,0.2-18.3,0.7-26.7-0.1C472.3,462.7,473.1,461.5,473.3,460.5z"/>
						<path class="st0" d="M495.2,504.8c15.2-31.5,33.5-61.8,59.5-88.6c25.2-25.1,52.4-45.4,85.4-51.6c9-1.3,19.1-0.5,25.9,5.6
							c1.3,1.1,2.9,2.2,4.8,1.6c23.7-9.5,56.5-12.8,80.2-0.9c13.7,6.7,26.8,15.3,40,23.6c1.7,0.9,0.9,2.7,0,3.7
							c-7.6,8.4-13.9,17-20.7,25.8c-0.8,0.8-2,0.4-2.8,0l-34.9-24c-16.3-11-35-18.8-56.2-15.3c-2.3,1.2-1.2,4.1-1.6,6.3
							c0.5,21.8-7.2,40.7-17.7,58c-8.4,12.1-18.1,24.7-32.3,28.7c-6.2,1.3-12.2-0.6-16-5.6c-10.4-15.8-1.2-35.1,6.4-49.1
							c8.7-15.3,22.2-29.7,36.8-40.7c0.3-0.6,1-1.1,0.6-1.8c-1.4-1.4-3.9-0.6-5.7-0.2c-23.7,7.9-42.6,28.8-60.1,48.6
							c-31.2,38.4-54.9,80-68.3,125.8c-4.2,17.2-9.8,43.6,7.7,55.6c15.4,8.3,30.2-2.3,41.8-12.3c17.6-17.9,29.4-38.6,34.3-62
							c0.8-7,2.7-16.5-3.7-21.3c-5.8-2.6-10.5,2.2-14.4,6.2c-9,10.8-12.8,23.8-14.4,37.8c-4,3.3-8.8,5.4-13,8.6
							c-8,5.5-15.9,12.9-22.3,20.3c-0.8,0.2-0.9-0.7-1.1-1.1c-0.9-25.7,8.3-47.8,22.4-67.6c11.3-13.1,25.7-24.2,43.2-20
							c7.7,2,12.7,10.1,14.1,17.4c2.8,24.2-7.4,45.4-18.3,65.1c-17.6,27.7-45.5,55.7-80.7,52.3c-13.5-0.8-26.2-10.2-31.9-22.6
							c-13.3-26.6-4.1-60.7,4.8-86.4L495.2,504.8z M615.2,459c0.3,3,1.5,6.2,4.6,7.3c6,1.7,10.8-2.7,15.2-6.2
							c16-16.9,25.8-36.5,28.3-59.1c0-3.3,1.1-7.5-0.7-10.4c-1.3-0.2-2.8,0.3-3.9,1.1c-10.8,7.2-20.9,17.7-28.3,28.3
							C622.7,431.9,615.7,444.1,615.2,459z"/>
						<path class="st0" d="M637.7,534.3c12.8-16.9,29.9-35.4,51.4-36.8c5.4,0.1,10.2,2.4,13.5,6.9c9.2,13.6,1.4,31-1.9,44.7
							c-0.3,1.2,0.6,2.1,1.4,2.4c4.4,0.7,9.5,0,13.4-1.9l1.7-2.1c15.5-44.1,38.5-85.1,65.8-124.2c17.1-22.6,38.9-45.9,64.2-56.8
							c6-2.1,14.7-4.6,20.4-0.1c6.4,5.2,4.6,14.3,2.9,21.3c-0.7,6.2-7.6,6.9-12.1,8.3c-0.2-0.1-0.4,0-0.7-0.2c0.1-4,2.2-7.5,3-11.4
							c0.2-2.1,0.6-3.9-0.3-5.9c-1.1-2-3.5-1.3-5.2-0.8c-8.6,4.2-15.5,11.8-22,19.2c-24.5,28.4-42.3,60-58.6,91.9
							c-5.4,11.1-11,22-15.3,33.6c-0.1,0.7,0.1,1.1,0.7,1.6c3.8-0.1,6-4,8.9-6c21.6-19.6,39.1-42,55.3-64.8c3.5-1.7,7.4-1.6,11.4-2
							l0.8,0.2c-0.2,3.1-2.9,5.5-4.4,8.3c-18.1,26-38.6,50.9-63.5,73.6l-18,14.8c-3.8,3.3-3.9,8.4-5.8,12.6
							c-3.5,11.4-7,23.1-7.4,35.6c0.1,2.1,0.9,4.1,2.6,5.2c4.8,2.1,8.6-2.4,11.9-5.5c24.4-28.2,35.2-62.8,65-88.1
							c9.8-7.7,22.7-14.3,35.3-8.5c2.2,0.8,3.9,3.7,6.5,2.4c1.9-1.3,2-4.3,4.7-4.2c8.8-0.1,18.1-0.4,26.5,0.3c0.8,0.7,0.2,1.8,0,2.6
							l-6,12.2l-37.3,75.3c-1.7,3.4-3.9,7.1-3.7,11c0.6,1.7,2.3,1.8,3.8,1.5c7-3.9,12.1-10.3,16.7-16.8c4.6-6.4,8.3-13.2,12.6-19.7
							c2.3-1.1,5.5-0.6,8.1-0.3c1.5,1.4-0.5,3.3-0.8,5c-11,22.7-26.2,47.5-50.1,60.1c-5.6,2.8-13.2,5.3-19.3,1.9
							c-4.9-3.3-4.4-9.4-6.6-14.1c-0.4-0.7-1.6-0.6-2.1-0.2c-9.9,8.8-20.6,18.8-34.5,15c-8.6-4-9.6-14-10.2-22.6
							c-0.4-0.3-0.2-1-0.8-1.3l-1.1,0.4c-9.7,11.6-22,26.1-38.3,24.7c-6.2-0.5-11.6-6.5-13.5-12c-5.7-18.1,0.4-38,4.4-55.4
							c0-1-1.1-2-2-2.1l-13.7,0.2l-2.2,2.5c-10.1,19.7-21.1,38.8-38.5,55.2c-9.1,8.1-20.4,14.8-32.9,11.1
							c-10.4-4.5-13.1-15.8-13.1-26.5C610.9,578.7,623,556,637.7,534.3z M641.3,594.5c0.2,3.8,2.1,7.7,6,8.9
							c2.5,0.9,5.3-0.2,7.6-1.3c12.8-9.5,20.4-24.1,27.3-37.4c0.7-1.3,1.2-3.4-0.5-4.4c-6.6-3.4-13.1-8.6-18.4-14.5
							c-0.7-0.7-1.9-0.8-2.7-0.3c-4.8,6.4-7.9,13.5-11.3,20.6C645.4,575,641.3,583.9,641.3,594.5z M673.4,532.3
							c0.4,6.8,5.8,13.1,12,15.4c1.2,0.4,3.4,1,4.3-0.5c3.8-8.6,7.4-18.5,5.4-28.5c-0.8-2.3-2.8-4.7-5.2-5.5c-2.4-0.7-5,0.1-7.1,1.1
							C676.7,518.3,673.7,525.1,673.4,532.3z M795.8,591.5c-0.2,3.2-1,7.2,1.4,9.7c1.3,1.3,3.4,1.5,5.1,0.9
							c6.6-3.4,10.8-10.4,14.8-16.2c13.4-20.8,23.2-43.1,32.4-65.7c0.3-2,0.9-4.8-1-6.1c-5.4-2.6-9.7,3.4-13.7,6.3
							c-17.7,17.6-27.1,38.9-35.9,60.2L795.8,591.5z"/>
						<path class="st0" d="M821.6,426l11.8-15.3l1.8-1.5c34.2-0.7,60.9-21,84.9-45c-0.1,3.2-1.6,6.2-2.7,9.1
							c-15.8,37.1-54.1,69.7-95.5,70.3l-9.8-0.1c-1.8-0.4-0.5-2.2-0.1-3.1L821.6,426z"/>
					</g>
				</g>
			</g>
		</g>
	</g>
	<path class="st0" d="M864.7,622c0-4.6,3.5-8.1,8-8.1c4.4,0,7.9,3.5,7.9,8.1c0,4.7-3.5,8.2-7.9,8.2
		C868.2,630.2,864.7,626.7,864.7,622z M872.7,631.8c5.3,0,9.9-4.2,9.9-9.8c0-5.6-4.6-9.8-9.9-9.8c-5.4,0-10,4.2-10,9.8
		C862.8,627.7,867.3,631.8,872.7,631.8z M870.7,622.8h2l3,4.9h1.9l-3.2-5c1.7-0.2,2.9-1.1,2.9-3.1c0-2.2-1.3-3.2-4-3.2h-4.3v11.3
		h1.7V622.8z M870.7,621.3v-3.5h2.3c1.2,0,2.5,0.3,2.5,1.7c0,1.7-1.3,1.8-2.7,1.8H870.7z"/>
</g>
</svg>
