<?xml version="1.0" encoding="utf-8"?>
<!-- Generator: Adobe Illustrator 25.1.0, SVG Export Plug-In . SVG Version: 6.00 Build 0)  -->
<svg version="1.0" id="Layer_1" xmlns="http://www.w3.org/2000/svg" xmlns:xlink="http://www.w3.org/1999/xlink" x="0px" y="0px"
	 viewBox="0 0 280 300" enable-background="new 0 0 280 300" xml:space="preserve">
<path id="path946" display="none" fill="#FFFFFF" d="M-480.58-97.42c0-113.25,0-226.49,0-339.75c160.19,0,320.39,0,480.58,0
	C0-323.91,0-210.67,0-97.42C-160.19-97.42-320.39-97.42-480.58-97.42z"/>
<g>
	<path fill="#231F20" d="M66.25,110.37c0,0,10.81-6.91,17.56-1.16c6.75,5.75,6,19,5,26.01c-1,7-10,78.77-10,78.77
		s-1.75,9.5,0.25,16.75c2,7.25,2,7.25,2,7.25s1.5,3.75-1.5,5s-8-12.5-6.5-22.75c1.5-10.25,11.25-92.02,11.25-92.02
		s2.8-12.96-1.75-15.75c-5.56-3.41-16,4.5-16,4.5l-13.25,9c0,0-6.5,4.5-11,1.25c-4.5-3.25,2-14.75,2-14.75s18.75-32.26,31.51-44.01
		c0,0,5.75-5.25,8.75-5.25c3,0,5,2.75,7,5.25c2,2.5-1.25,2.75-2.5,1c-1.25-1.75-4.25-0.75-7.25,1.25c-3,2-14.25,16-18.75,23
		c-4.5,7-13.24,19.79-14.75,24.01c-0.88,2.46-2.75,6,1.75,3.5C54.55,118.71,66.25,110.37,66.25,110.37z"/>
	<path fill="#231F20" d="M99.23,91.03c1.21-0.64,4.07-0.5,3.89,1.76c-0.17,2.04-3.67,2.95-4.51,2.11
		C97.77,94.06,97.2,92.11,99.23,91.03z"/>
	<path fill="#231F20" d="M101.72,106.59c0,0,0.33-4.76,2.28-2.15c1.96,2.61,3,5.48,3.13,6.98c0.13,1.5,0.13,2.41,1.04,2.35
		c0.91-0.07,1.5-0.13,1.96-2.22c0.46-2.09,0.2-5.41,1.5-5.8c1.3-0.39,1.5,2.67,2.48,3.19c0.98,0.52,2.54,2.22,3.72,2.54
		c1.17,0.33,2.48,0.65,2.48-1.56c0-2.22,1.96-8.54,2.93-10.3c0.98-1.76,1.3-2.8,1.43-3.39c0.13-0.59,0.2-1.5,1.24-1.76
		s1.83,0.85,2.41,1.43c0.59,0.59,2.87,1.11,1.83,3.65c-1.04,2.54-2.54,5.28-4.5,21.26c-0.27,2.21-3,30.91-3,30.91
		s-0.39,2.48-0.2,2.61c0.2,0.13,0.85-1.76,1.24-3.52c0.39-1.76,6-25.43,6.39-26.6c0.39-1.17,8.67-35.27,10.11-37.82
		c1.43-2.54,2.74-3.39,3.33-2.93c0.59,0.46,1.7,1.3,0.98,7.82c-0.72,6.52-3.91,32.99-3.46,33.97c0.46,0.98,0.91,2.35,2.74,0.2
		c1.83-2.15,13.8-19.05,58.41-47.81c2.7-1.74,36.35-21.59,37.03-20.66c0.67,0.93-3.54,3.12-3.54,3.12s-43.78,25.22-69.75,49.01
		c-0.97,0.89-26.91,23.11-27.16,37.62c-0.05,3.08-0.67,3.8-1.35,3.8c-0.67,0-4.22-3.8-0.76-32.47c0.21-1.76,2.02-11.72,0.67-11.81
		s-3.54,13.92-3.54,13.92s-8.6,35.09-11.47,53.64c-0.65,4.24-3.63,21.17-3.88,23.28c-0.25,2.11-0.67,5.65-1.86,5.9
		c-1.18,0.25-2.11-5.06-2.02-7.34s3.21-41.84,3.63-46.31s2.36-27.24,1.6-33.4c0,0-0.08-1.18-1.27-1.35
		c-1.18-0.17-3.21,5.65-3.8,6.75s-0.93,2.28-2.87,2.36s-2.95-3.21-2.95-3.21s-0.84-2.19-1.94-2.19s-0.76,4.72-0.76,4.72
		s0.25,3.88-2.7,3.88s-4.22-3.71-3.88-6.16S101.87,112.86,101.72,106.59z"/>
</g>
</svg>
