<?xml version="1.0" encoding="utf-8"?>
<!-- Generator: Adobe Illustrator 24.0.2, SVG Export Plug-In . SVG Version: 6.00 Build 0)  -->
<svg version="1.0" id="Layer_1" xmlns="http://www.w3.org/2000/svg" xmlns:xlink="http://www.w3.org/1999/xlink" x="0px" y="0px"
	 viewBox="0 0 300 280" enable-background="new 0 0 300 280" xml:space="preserve">
<g id="XMLID_1_">
	<path id="XMLID_654_" d="M74.05,122.43c0.06-0.21,0.16-0.42,0.17-0.64c0.4-5.99,1.45-11.85,3.28-17.56
		C82.34,89.1,91,76.6,103.43,66.73c8.91-7.08,18.91-11.89,30.01-14.39c6.66-1.5,13.4-2.08,20.22-1.76
		c18.37,0.87,34.36,7.52,47.83,20.02c12.52,11.62,20.25,25.92,23.2,42.75c0.51,2.88,0.81,5.8,1.02,8.71
		c0.19,2.61,0.33,5.25,0.15,7.85c-0.47,6.49-1.52,12.89-3.55,19.11c-2.83,8.68-7.01,16.66-12.64,23.83
		c-6.95,8.84-15.4,15.93-25.41,21.12c-7.68,3.98-15.82,6.54-24.39,7.62c-16.68,2.09-32.49-0.65-47.17-8.98
		c-13.61-7.72-23.88-18.68-30.83-32.71c-4.37-8.82-6.81-18.19-7.59-27.99c-0.05-0.59-0.15-1.18-0.23-1.77
		C74.05,127.57,74.05,125,74.05,122.43z M149.74,200.9c0.45,0,0.91,0.01,1.36,0c4.55-0.13,9.08-0.51,13.55-1.45
		c15.47-3.27,28.66-10.68,39.46-22.17c13-13.84,19.73-30.38,20.32-49.38c0.15-5-0.29-9.96-1.21-14.87
		c-1.95-10.43-5.92-20.03-11.93-28.77c-8.21-11.94-18.93-20.86-32.3-26.51c-12.94-5.47-26.39-7.18-40.26-5.01
		c-16.64,2.6-30.69,10.27-42.43,22.25c-5.38,5.49-9.69,11.77-13.09,18.68c-4.82,9.8-7.41,20.15-7.68,31.07
		c-0.14,5.62,0.37,11.18,1.55,16.68c3.28,15.25,10.53,28.31,21.78,39.1c10.1,9.68,22.08,15.88,35.75,18.81
		C139.6,200.38,144.64,200.91,149.74,200.9z"/>
	<path id="XMLID_651_" d="M124.64,221.47c0,2.55,0,5.03,0,7.54c-1.17,0-2.27,0-3.41,0c0-5.74,0-11.46,0-17.22
		c0.05-0.02,0.12-0.06,0.19-0.06c2.81,0.03,5.61,0,8.42,0.14c1.08,0.05,2.19,0.37,3.2,0.78c3.21,1.3,3.03,5.32,1.04,6.96
		c-0.77,0.63-1.68,1.08-2.58,1.65c1.54,2.51,3.13,5.09,4.78,7.77c-1.18,0-2.24,0.02-3.3-0.02c-0.17-0.01-0.37-0.26-0.49-0.44
		c-1.36-2.18-2.71-4.37-4.03-6.57c-0.24-0.4-0.5-0.58-0.98-0.56C126.56,221.5,125.63,221.47,124.64,221.47z M124.67,220.58
		c0.97,0.2,3.31,0.14,4.14-0.2c0.63-0.26,1.27-0.58,1.78-1.02c2.22-1.93,1.69-5.21-1-6.35c-1.59-0.67-3.25-0.36-4.92-0.43
		C124.67,215.3,124.67,217.92,124.67,220.58z"/>
	<path id="XMLID_650_" d="M155.81,213.35c-0.65,0.51-1.22,0.96-1.82,1.44c-0.3-0.29-0.59-0.58-0.89-0.85
		c-1.75-1.52-4.37-1.72-6.16-0.46c-1.4,0.98-1.55,2.67-0.32,3.87c1.04,1.01,2.4,1.31,3.75,1.64c1.27,0.31,2.55,0.59,3.77,1.04
		c1.58,0.59,2.79,1.62,2.9,3.47c0.14,2.34-1.03,4.23-3.18,5.22c-1.49,0.69-3.08,0.84-4.69,0.78c-2.16-0.09-4.25-0.42-6.06-1.74
		c-0.17-0.13-0.35-0.26-0.6-0.45c0.68-0.52,1.33-1.01,2.01-1.54c0.76,1,1.66,1.75,2.83,2.13c1.54,0.5,3.1,0.66,4.62-0.04
		c2.18-1.01,2.45-3.46,0.55-4.93c-0.91-0.71-2-1.01-3.09-1.31c-1.41-0.39-2.85-0.69-4.18-1.28c-1.67-0.73-2.39-2.16-2.26-4
		c0.12-1.84,1.07-3.16,2.69-3.9C149.17,210.84,152.54,211.07,155.81,213.35z"/>
	<path id="XMLID_647_" d="M161.85,229.05c0.42-0.9,0.78-1.69,1.14-2.47c2.21-4.77,4.43-9.54,6.62-14.32
		c0.18-0.4,0.39-0.56,0.83-0.54c0.71,0.04,1.42,0.02,2.14,0c0.33-0.01,0.53,0.08,0.67,0.42c2.33,5.51,4.68,11.01,7.02,16.52
		c0.04,0.1,0.07,0.22,0.11,0.39c-0.99,0-1.94,0.02-2.88-0.02c-0.18-0.01-0.42-0.26-0.5-0.45c-0.71-1.67-1.4-3.35-2.07-5.04
		c-0.16-0.41-0.37-0.55-0.82-0.55c-2.45,0.03-4.91,0.02-7.36,0c-0.39,0-0.6,0.1-0.76,0.47c-0.75,1.66-1.57,3.28-2.31,4.94
		c-0.23,0.53-0.53,0.72-1.07,0.65C162.41,229.02,162.19,229.05,161.85,229.05z M170.72,213.33c-1.39,2.97-2.7,5.77-4.03,8.64
		c2.58,0,5.05,0,7.61,0C173.11,219.1,171.95,216.3,170.72,213.33z"/>
	<path id="XMLID_646_" d="M198.99,225.25c0.79,0,1.51,0,2.27,0c-0.05,1.5-0.82,2.56-2.07,3.17c-0.89,0.43-1.89,0.71-2.87,0.87
		c-1.82,0.31-3.66,0.28-5.47-0.16c-2.75-0.66-4.52-2.37-5.24-5.09c-0.63-2.36-0.63-4.74-0.03-7.1c0.7-2.74,2.45-4.46,5.21-5.1
		c2.47-0.57,4.95-0.59,7.37,0.23c2.02,0.68,3.11,2.16,3.12,4.11c-0.96,0-1.91,0-2.88,0c-0.07-0.39-0.12-0.76-0.21-1.12
		c-0.62-2.28-2.77-3.49-5.26-2.96c-1.59,0.34-2.6,1.35-3.23,2.79c-0.82,1.9-1,3.91-0.9,5.93c0.06,1.41,0.21,2.86,0.59,4.21
		c0.96,3.37,3.91,4.17,6.6,3.58C197.7,228.25,198.71,227.04,198.99,225.25z"/>
	<path id="XMLID_645_" d="M220.34,211.78c0,0.34,0,0.63,0,1.03c-0.21,0-0.42,0-0.63,0c-2.29,0-4.59,0-6.88,0
		c-0.27,0-0.56-0.07-0.56,0.38c0.01,2.15,0.01,4.31,0.01,6.54c2.17,0,4.31,0,6.48,0c0,0.36,0,0.65,0,1c-2.14,0-4.27,0-6.44,0
		c0,2.43,0,4.79,0,7.22c2.67,0,5.33,0,8.01,0c0.02,0.22,0.02,0.38,0.04,0.53c0.06,0.45-0.12,0.57-0.57,0.57
		c-1.96-0.02-3.92-0.01-5.88-0.01c-1.46,0-2.93,0-4.39,0c-0.21,0-0.42-0.02-0.67-0.03c0-5.76,0-11.47,0-17.23
		C212.67,211.78,216.47,211.78,220.34,211.78z"/>
	<path id="XMLID_644_" d="M113.91,227.94c0,0.28-0.01,0.45,0,0.62c0.03,0.35-0.09,0.49-0.47,0.48c-3.52-0.02-7.04-0.02-10.56-0.01
		c-0.36,0-0.49-0.08-0.49-0.45c0.01-5.52,0.01-11.04,0.01-16.56c0-0.08,0.03-0.15,0.05-0.26c3.8,0,7.58,0,11.41,0
		c0,0.32,0,0.63,0,1.02c-2.65,0-5.3,0-8,0c0,2.35,0,4.62,0,6.94c2.14,0,4.26,0,6.42,0c0,0.35,0,0.64,0,1c-2.12,0-4.24,0-6.41,0
		c0,2.44,0,4.79,0,7.21C108.53,227.94,111.17,227.94,113.91,227.94z"/>
	<path id="XMLID_643_" d="M95.36,211.73c-0.68,1.83-1.32,3.54-1.97,5.26c-1.42,3.82-2.86,7.63-4.26,11.45
		c-0.18,0.48-0.42,0.63-0.9,0.61c-0.71-0.03-1.43,0.01-2.14-0.03c-0.18-0.01-0.45-0.18-0.51-0.34c-2.02-5.6-4.02-11.2-6.02-16.81
		c-0.01-0.02,0.01-0.04,0.02-0.15c1.06,0,2.13-0.02,3.2,0.02c0.13,0,0.29,0.28,0.35,0.46c1.34,4.06,2.66,8.12,3.99,12.18
		c0.3,0.91,0.6,1.82,1.04,2.74c0.28-0.8,0.57-1.59,0.85-2.39c1.47-4.12,2.94-8.23,4.38-12.35c0.18-0.51,0.4-0.75,0.95-0.67
		C94.66,211.77,94.96,211.73,95.36,211.73z"/>
	<path id="XMLID_556_" d="M183.04,71.91c1.43-2.32,2.89-4.68,4.42-7.14c1.78,1.22,3.54,2.36,5.22,3.6c1.65,1.22,3.22,2.55,4.85,3.81
		c0.44,0.34,0.45,0.59,0.07,0.99c-0.94,1.01-1.86,2.05-2.76,3.1c-0.34,0.39-0.59,0.4-0.98,0.07c-1.22-1.04-2.48-2.03-3.7-3.06
		c-0.36-0.3-0.59-0.27-0.86,0.12c-0.4,0.59-0.84,1.15-1.31,1.78c2.22,1.93,4.44,3.86,6.76,5.88c1.88-1.98,3.77-3.99,5.74-6.06
		c1.23,1.31,2.34,2.38,3.32,3.56c1.82,2.19,3.56,4.45,5.34,6.67c0.31,0.39,0.26,0.64-0.15,0.9c-0.96,0.63-1.9,1.28-2.85,1.92
		c-0.22,0.15-0.44,0.31-0.68,0.48c1.16,0.71,2.26,1.4,3.38,2.06c0.12,0.07,0.37,0,0.52-0.08c0.74-0.42,1.47-0.86,2.27-1.33
		c0.58,0.97,1.19,1.91,1.71,2.9c0.83,1.59,1.58,3.23,2.41,4.83c0.64,1.24,1.33,2.47,2.05,3.67c0.56,0.94,0.58,1.99,0.72,3.02
		c0.04,0.26,0.1,0.54,0.24,0.76c1.3,2.14,2.36,4.38,2.92,6.83c0.29,1.28,0.45,2.6,0.69,3.9c0.16,0.85,0.39,1.7,0.55,2.55
		c0.04,0.22,0.04,0.58-0.08,0.67c-0.16,0.11-0.48,0.04-0.71-0.02c-0.18-0.05-0.33-0.19-0.6-0.36c0.09,0.96,0.17,1.84,0.27,2.86
		c-1.72,0.09-3.38,0.18-5.05,0.23c-0.11,0-0.31-0.26-0.33-0.41c-0.11-0.8-0.18-1.6-0.27-2.48c-1.06,0.21-2.07,0.22-3.1-0.4
		c0.12,1.04,0.26,1.95,0.33,2.86c0.13,1.73,0.25,3.47,0.33,5.2c0.03,0.55,0.18,0.74,0.76,0.73c2.27-0.02,4.55,0.03,6.82,0.05
		c0.78,0.01,0.84,0.06,0.82,0.85c-0.12,4.46-0.7,8.87-1.55,13.24c-0.02,0.09-0.06,0.18-0.11,0.31c-1.29-0.25-2.57-0.5-3.84-0.75
		c-0.31-0.06-0.62-0.15-0.93-0.18c-0.59-0.06-0.59-0.37-0.5-0.87c0.33-1.83,0.6-3.66,0.89-5.5c0.02-0.11,0-0.23,0-0.46
		c-0.81-0.09-1.61-0.19-2.41-0.24c-0.12-0.01-0.33,0.27-0.37,0.45c-0.55,2.73-1.06,5.47-1.61,8.2c-0.24,1.18-0.24,1.18,0.92,1.48
		c2.14,0.56,4.27,1.17,6.41,1.74c0.4,0.11,0.44,0.3,0.33,0.64c-1.34,4.16-2.78,8.28-4.74,12.21c-0.26,0.52-0.48,0.58-0.98,0.3
		c-1.14-0.62-2.33-1.18-3.49-1.77c-0.19-0.1-0.38-0.2-0.62-0.34c0.84-1.95,1.66-3.87,2.52-5.88c-0.84-0.32-1.59-0.63-2.35-0.87
		c-0.14-0.04-0.45,0.11-0.52,0.25c-1.29,2.67-2.56,5.35-3.83,8.02c-0.02,0.05-0.04,0.11-0.08,0.25c2.36,1.32,4.73,2.66,7.22,4.05
		c-0.92,1.5-1.72,3.01-2.71,4.38c-1.7,2.35-3.53,4.61-5.3,6.92c-0.29,0.37-0.5,0.39-0.85,0.06c-1.13-1.04-2.3-2.05-3.53-3.15
		c1.37-1.82,2.74-3.62,4.16-5.5c-0.77-0.55-1.49-1.05-2.23-1.58c-2.1,2.53-4.18,5.03-6.29,7.57c1.95,1.89,3.92,3.8,5.95,5.76
		c-0.46,0.49-0.78,0.85-1.12,1.2c-2.88,2.96-6.17,5.44-9.45,7.92c-0.31,0.23-0.5,0.2-0.72-0.12c-0.8-1.2-1.62-2.39-2.44-3.58
		c-0.26-0.38-0.23-0.64,0.16-0.94c1.49-1.14,2.95-2.33,4.43-3.48c0.37-0.29,0.38-0.54,0.07-0.87c-0.5-0.53-0.97-1.09-1.46-1.64
		c-2.53,1.9-5.02,3.78-7.53,5.67c1.42,2.33,2.85,4.67,4.32,7.08c-3.82,2.21-7.65,4.32-11.79,6c-0.42-1.03-0.83-2.02-1.23-3.02
		c-0.19-0.48-0.33-0.98-0.54-1.44c-0.23-0.5-0.14-0.74,0.39-0.97c1.52-0.65,3.01-1.39,4.53-2.06c0.53-0.23,0.61-0.52,0.32-1
		c-0.36-0.59-0.68-1.19-1.02-1.79c-2.68,1.15-5.31,2.28-8,3.43c0.87,2.61,1.74,5.23,2.63,7.91c-3.97,1.23-7.89,2.34-12.04,2.96
		c-0.3-1.75-0.59-3.47-0.89-5.29c0.51-0.11,1.06-0.23,1.61-0.35c1.14-0.25,2.28-0.49,3.42-0.74c0.54-0.12,0.74-0.4,0.55-0.98
		c-0.21-0.63-0.31-1.3-0.47-2c-0.37,0.05-0.7,0.08-1.03,0.14c-2.25,0.42-4.5,0.85-6.76,1.25c-0.45,0.08-0.65,0.19-0.59,0.7
		c0.27,2.42,0.5,4.84,0.75,7.25c0.04,0.4,0.02,0.63-0.48,0.66c-3.61,0.22-7.23,0.44-10.85,0.2c-0.35-0.02-0.7-0.06-1.17-0.11
		c0.12-1.79,0.23-3.53,0.35-5.33c0.65,0,1.31,0,1.97,0c1.15,0,2.29,0,3.44,0.01c0.37,0,0.54-0.16,0.53-0.53
		c-0.02-0.67,0-1.35-0.05-2.01c-0.01-0.14-0.24-0.37-0.37-0.38c-2.45-0.11-4.9-0.19-7.35-0.29c-0.43-0.02-0.42,0.26-0.45,0.53
		c-0.21,1.93-0.41,3.85-0.62,5.78c-0.06,0.53-0.14,1.06-0.2,1.59c-0.03,0.31-0.17,0.46-0.5,0.42c-4.05-0.5-8.05-1.22-12.04-2.41
		c0.5-1.7,0.99-3.38,1.5-5.13c0.54,0.12,1.05,0.23,1.56,0.34c1.31,0.29,2.63,0.57,3.94,0.86c0.47,0.11,0.7-0.05,0.76-0.53
		c0.08-0.61,0.22-1.21,0.28-1.82c0.01-0.16-0.17-0.45-0.31-0.49c-2.64-0.69-5.28-1.35-8.03-2.04c-0.84,2.58-1.69,5.19-2.56,7.86
		c-4.28-1.26-8.21-3.13-12.11-5.2c0.89-1.62,1.74-3.18,2.62-4.81c0.84,0.43,1.65,0.86,2.48,1.27c0.9,0.44,1.82,0.85,2.73,1.29
		c0.35,0.17,0.53,0.09,0.68-0.28c0.28-0.71,0.6-1.41,0.93-2.15c-2.49-1.29-4.94-2.55-7.52-3.88c-1.42,2.29-2.88,4.65-4.4,7.09
		c-1.23-0.81-2.45-1.53-3.59-2.37c-2.22-1.65-4.38-3.38-6.58-5.07c-0.34-0.26-0.39-0.48-0.09-0.82c0.98-1.08,1.95-2.18,2.92-3.28
		c0.32-0.37,0.58-0.26,0.9,0.01c1.23,1.03,2.48,2.03,3.71,3.06c0.35,0.29,0.58,0.3,0.86-0.11c0.4-0.61,0.86-1.18,1.32-1.78
		c-2.24-1.95-4.44-3.86-6.71-5.84c-1.94,1.92-3.9,3.86-5.94,5.88c-1.26-1.36-2.54-2.62-3.68-4c-1.65-1.97-3.19-4.03-4.8-6.04
		c-0.36-0.45-0.27-0.69,0.18-0.98c1.29-0.84,2.56-1.72,3.9-2.63c0.54,0.72,1.05,1.41,1.59,2.09c0.68,0.87,1.38,1.72,2.08,2.58
		c0.29,0.35,0.56,0.34,0.89,0.02c0.52-0.5,1.09-0.96,1.66-1.47c-0.75-0.96-1.49-1.85-2.16-2.8c-1.06-1.5-2.08-3.03-3.08-4.57
		c-0.26-0.4-0.43-0.43-0.83-0.19c-2.12,1.27-4.26,2.51-6.39,3.76c-0.1,0.06-0.2,0.11-0.34,0.18c-2.54-3.94-4.53-8.12-6.02-12.69
		c1.65-0.59,3.28-1.18,4.97-1.78c0.31,0.77,0.57,1.49,0.87,2.19c0.5,1.14,1.03,2.26,1.53,3.41c0.17,0.4,0.44,0.5,0.8,0.34
		c0.7-0.31,1.38-0.66,2.03-0.98c-1.2-3.08-2.36-6.08-3.57-9.18c-2.57,0.77-5.19,1.55-7.86,2.34c-1.65-4.92-2.45-9.98-2.93-15.23
		c1.69-0.1,3.34-0.2,4.99-0.29c0.35-0.02,0.39,0.22,0.42,0.51c0.2,1.69,0.41,3.38,0.63,5.06c0.04,0.29,0.1,0.58,0.17,0.87
		c0.21,0.9,0.22,0.92,1.14,0.75c0.62-0.11,1.22-0.28,1.9-0.44c-0.16-1.18-0.33-2.28-0.45-3.4c-0.21-2.02-0.4-4.05-0.59-6.08
		c-0.07-0.73-0.11-1.46-0.14-2.18c-0.01-0.43-0.18-0.56-0.61-0.56c-2.18,0.01-4.35-0.01-6.53-0.02c-0.2,0-0.4,0-0.59-0.01
		c-0.47-0.02-0.71-0.21-0.66-0.74c0.25-2.76,0.47-5.51,0.7-8.27c0.01-0.12,0.02-0.23,0.03-0.37c-0.24-0.1-0.5-0.15-0.69-0.3
		c-0.65-0.52-0.69-0.98-0.21-1.67c0.15-0.21,0.28-0.44,0.44-0.63c0.42-0.5,0.62-0.96,0.25-1.64c-0.26-0.47-0.25-1.07,0.04-1.65
		c0.2-0.39,0.15-0.89,0.28-1.32c0.55-1.74,1.22-3.41,2.3-4.9c1.05-1.44,1.52-3.15,2.2-4.77c0.71-1.69,1.5-3.35,2.24-5.04
		c0.19-0.43,0.4-0.43,0.78-0.23c0.92,0.5,1.87,0.94,2.8,1.43c0.31,0.16,0.52,0.13,0.81-0.05c0.78-0.46,1.6-0.86,2.38-1.32
		c0.25-0.15,0.44-0.4,0.72-0.67c-1.84-1.03-3.57-2.01-5.41-3.04c0.83-1.37,1.53-2.75,2.43-3.99c1.8-2.48,3.71-4.88,5.56-7.32
		c0.27-0.36,0.48-0.41,0.84-0.07c0.94,0.88,1.92,1.71,2.89,2.56c0.21,0.18,0.4,0.37,0.65,0.6c-1.39,1.84-2.75,3.64-4.11,5.43
		c0.3,0.44,0.56,0.51,0.92,0.19c1.59-1.42,3.35-2.57,5.24-3.54c0.28-0.15,0.5-0.44,0.72-0.68c0.54-0.6,1.07-1.21,1.67-1.89
		c-2-1.94-3.99-3.86-6.06-5.87c1.57-1.47,2.96-2.88,4.47-4.15c1.98-1.67,4.06-3.21,6.09-4.83c0.35-0.28,0.54-0.25,0.79,0.13
		c0.77,1.17,1.57,2.33,2.38,3.48c0.32,0.46,0.24,0.73-0.21,1.07c-1.45,1.1-2.86,2.25-4.3,3.36c-0.4,0.31-0.47,0.57-0.1,0.96
		c0.49,0.51,0.95,1.05,1.44,1.6c2.52-1.9,5.01-3.77,7.53-5.67c-1.42-2.33-2.85-4.67-4.28-7.01c0.93-0.9,9.8-5.44,11.78-6.02
		c0.49,1.21,0.99,2.43,1.46,3.66c0.54,1.43,0.52,1.42-0.88,2.05c-1.31,0.59-2.6,1.24-3.91,1.84c-0.39,0.18-0.43,0.39-0.24,0.74
		c0.32,0.57,0.65,1.13,0.95,1.71c0.2,0.38,0.43,0.15,0.64,0.06c2.18-0.93,4.36-1.87,6.54-2.81c0.3-0.13,0.61-0.26,0.97-0.4
		c-0.88-2.66-1.75-5.27-2.64-7.94c3.98-1.22,7.91-2.34,12.05-2.95c0.29,1.75,0.58,3.47,0.89,5.29c-0.46,0.1-0.95,0.21-1.44,0.32
		c-1.23,0.27-2.47,0.54-3.7,0.82c-0.45,0.1-0.6,0.34-0.45,0.82c0.2,0.68,0.33,1.37,0.5,2.1c0.36-0.05,0.67-0.07,0.98-0.13
		c2.25-0.42,4.5-0.85,6.76-1.25c0.49-0.09,0.7-0.22,0.64-0.78c-0.27-2.36-0.47-4.72-0.75-7.08c-0.07-0.61,0.13-0.75,0.67-0.78
		c3.71-0.23,7.42-0.4,11.14-0.17c0.49,0.03,0.66,0.19,0.63,0.67c-0.11,1.57-0.2,3.15-0.3,4.77c-1.95,0-3.89,0-5.9,0
		c0,0.92-0.02,1.77,0.03,2.61c0.01,0.11,0.37,0.28,0.57,0.29c1.72,0.08,3.44,0.13,5.16,0.18c0.08,0,0.16,0.01,0.24,0.02
		c0.34,0.05,0.52-0.08,0.54-0.44c0.02-0.33,0.07-0.67,0.12-1c0.15-0.84,0.71-1.07,1.39-0.56c0.08,0.06,0.15,0.11,0.3,0.22
		c0.15-1.52,0.29-2.97,0.45-4.42c0.06-0.55,0.11-1.1,0.23-1.64c0.04-0.16,0.31-0.4,0.45-0.38c4.06,0.51,8.1,1.15,12.05,2.43
		c-0.49,1.66-0.97,3.33-1.48,5.08c-0.47-0.1-0.93-0.19-1.39-0.29c-1.41-0.3-2.82-0.59-4.23-0.91c-0.39-0.09-0.55,0.04-0.62,0.4
		c-0.13,0.76-0.26,1.51-0.4,2.3c2.82,0.74,5.58,1.46,8.41,2.2c0.85-2.61,1.7-5.22,2.57-7.88c4.28,1.26,8.21,3.13,12.11,5.2
		c-0.89,1.63-1.74,3.2-2.61,4.79c-1.49-0.74-2.92-1.5-4.39-2.18c-1.59-0.73-1.2-0.7-1.85,0.71c-0.2,0.43-0.38,0.87-0.59,1.35
		C178,69.3,180.47,70.58,183.04,71.91z M131.36,121.98c0.35-0.08,0.57-0.1,0.77-0.17c1.1-0.36,2.21-0.32,3.34-0.16
		c2.89,0.42,5.8,0.95,8.63-0.33c0.11-0.05,0.34-0.01,0.42,0.07c0.08,0.08,0.08,0.29,0.04,0.42c-0.19,0.62-0.76,0.78-1.28,0.94
		c-1.29,0.41-2.61,0.57-3.98,0.44c-1.91-0.18-3.82-0.38-5.73-0.45c-2.59-0.09-4.47,1.2-5.84,3.32c-0.28,0.43-0.49,0.9-0.73,1.35
		c0.05,0.06,0.09,0.11,0.14,0.17c0.48-0.2,0.99-0.34,1.42-0.62c1.03-0.66,1.99-1.44,3.03-2.07c1.86-1.12,3.86-1.48,5.97-0.77
		c0.23,0.08,0.47,0.25,0.6,0.45c0.13,0.21,0.14,0.5,0.19,0.76c-0.23,0-0.49,0.06-0.68-0.02c-1.6-0.65-3.18-0.65-4.69,0.18
		c-1.17,0.65-2.28,1.41-3.42,2.13c-0.24,0.15-0.46,0.32-0.7,0.48c0.03,0.05,0.05,0.09,0.08,0.14c0.2-0.07,0.4-0.12,0.59-0.2
		c0.92-0.4,1.83-0.84,2.77-1.21c3.75-1.47,7.21-0.96,10.33,1.6c0.37,0.3,0.82,0.79,0.82,1.19c-0.01,0.62-0.71,0.84-1.24,1.02
		c-1.19,0.42-2.4,0.8-3.61,1.18c-1.42,0.44-2.84,0.78-4.36,0.56c-1.82-0.26-3.44-0.88-4.78-2.16c-0.33-0.31-0.58-0.7-0.91-1.12
		c-0.22,0.01-0.62,0.12-0.68-0.43c0-0.04-0.2-0.07-0.31-0.09c-0.33-0.04-0.67-0.05-1-0.12c-0.64-0.14-0.92-0.56-0.7-1.18
		c0.19-0.53,0.5-1.03,0.78-1.52c0.3-0.53,0.63-1.05,0.98-1.63c-0.69-0.06-1.1,0.21-1.47,0.6c-0.84,0.87-1.73,1.68-2.91,2.09
		c-0.16,0.06-0.34,0.33-0.35,0.51c-0.05,0.79-0.13,1.59-0.05,2.37c0.23,2.34,0.41,4.69,0.81,7c0.83,4.83,2.57,9.36,4.83,13.69
		c0.85,1.63,1.57,3.36,3.03,4.61c1.16,0.99,2.19,2.12,3.39,3.05c2.23,1.74,4.49,3.43,6.39,5.55c0.52,0.59,1.1,1.16,1.73,1.61
		c0.5,0.35,1.13,0.7,1.71,0.72c1.91,0.09,3.84,0.15,5.74,0c2.72-0.21,5.16-1.14,7.14-3.19c1.51-1.56,3.23-2.91,4.85-4.37
		c1.38-1.24,2.8-2.44,4.09-3.77c2.21-2.27,3.76-5.02,5.3-7.75c0.59-1.06,1.12-2.2,1.43-3.37c0.96-3.57,1.93-7.13,2.21-10.85
		c0.22-2.96,0.44-5.91,0.23-8.88c-0.06-0.88-0.14-1.77-0.21-2.65c-0.04,0.03-0.09,0.06-0.13,0.09c-0.26-0.26-0.59-0.49-0.76-0.8
		c-0.43-0.79-0.71-1.66-1.19-2.42c-1.72-2.69-4.08-4.66-7.03-5.88c-3.11-1.29-6.41-1.88-9.73-2.3c-2.45-0.31-4.93-0.4-7.39-0.62
		c-1.51-0.13-3.05-0.18-4.29-1.27c-0.09-0.08-0.43-0.03-0.52,0.07c-1.17,1.32-2.56,2.34-4.05,3.25c-0.47,0.29-0.82,0.58-0.77,1.19
		c0.01,0.18-0.07,0.4-0.17,0.55c-0.96,1.43-2.08,2.69-3.69,3.4c-2.08,0.91-3.37,2.55-4.24,4.58
		C131.46,121.27,131.45,121.57,131.36,121.98z M81.79,145.3c0.17-0.02,0.27-0.01,0.36-0.04c2.37-0.62,4.74-1.24,7.1-1.88
		c0.71-0.19,0.8-0.18,1,0.52c0.35,1.21,0.64,2.46,1.11,3.62c0.92,2.25,1.94,4.46,2.94,6.67c0.18,0.4,0.13,0.58-0.26,0.78
		c-1.35,0.65-2.7,1.33-4.03,2.02c-0.36,0.19-0.56,0.15-0.74-0.24c-0.34-0.78-0.73-1.54-1.08-2.31c-0.54-1.18-1.06-2.37-1.61-3.59
		c-0.87,0.32-1.7,0.63-2.54,0.94c0.06,0.26,0.09,0.45,0.15,0.64c1.04,3.16,2.6,6.06,4.33,8.88c0.21,0.34,0.44,0.33,0.74,0.15
		c0.91-0.52,1.82-1.03,2.74-1.55c1.34-0.76,2.68-1.51,3.93-2.21c2.33,3.29,4.63,6.52,6.96,9.8c-1.24,1.1-2.59,2.29-4.04,3.58
		c-1.39-1.77-2.75-3.5-4.18-5.31c-0.76,0.52-1.5,1.02-2.22,1.52c0.06,0.15,0.08,0.21,0.11,0.26c1.82,2.84,3.96,5.43,6.34,7.82
		c0.28,0.28,0.49,0.25,0.75,0c0.75-0.73,1.51-1.46,2.26-2.19c1.13-1.1,2.26-2.2,3.32-3.23c2.89,2.46,5.69,4.85,8.55,7.28
		c-1,1.43-2.04,2.93-3.11,4.47c-1.7-1.28-3.33-2.51-5.05-3.79c-0.5,0.61-0.97,1.19-1.45,1.75c-0.25,0.29-0.22,0.51,0.08,0.74
		c2.41,1.79,4.82,3.59,7.23,5.38c0.31,0.23,0.56,0.21,0.78-0.15c1.29-2.06,2.6-4.11,3.87-6.19c0.28-0.46,0.48-0.53,0.9-0.22
		c0.38,0.28,0.81,0.49,1.21,0.72c0.07-0.22,0.05-0.3,0.01-0.36c-0.75-1.16-1.52-2.31-1.77-3.71c-0.03-0.16-0.22-0.32-0.37-0.43
		c-3.14-2.22-6.07-4.7-8.76-7.45c-4.73-4.83-8.63-10.26-11.42-16.44c-3.48-7.71-5.44-15.8-5.6-24.28c-0.02-1.02,0-2.04,0-3.08
		c0.53,0,0.93,0,1.29,0c-0.14,20.64,8.13,37.07,24.37,49.71c0.08-0.21,0.12-0.26,0.12-0.31c-0.02-2.67,0.58-5.26,0.99-7.87
		c0.11-0.69,0.06-1.42,0-2.12c-0.06-0.63-0.38-1.11-1-1.43c-1.52-0.8-2.58-2.02-2.96-3.73c-0.32-1.45-0.07-2.82,0.61-4.14
		c0.1-0.19,0.09-0.56-0.03-0.73c-0.9-1.23-1.34-2.64-1.6-4.11c-0.07-0.38-0.24-0.51-0.55-0.65c-0.44-0.21-0.91-0.44-1.22-0.79
		c-0.69-0.77-1.3-1.61-1.93-2.43c-0.06-0.08-0.09-0.17-0.14-0.26c-0.98-1.83-1.22-3.69-0.19-5.64c-0.24-0.13-0.46-0.26-0.68-0.36
		c-0.9-0.41-1.52-1.09-1.98-1.97c-0.19-0.37-0.46-0.75-0.78-1.01c-1.66-1.32-2.73-3.03-3.41-5.02c-0.08-0.24-0.16-0.47-0.22-0.67
		c-0.59,0.08-1.11,0.19-1.63,0.23c-1.66,0.12-2.94-0.75-4.21-1.65c-1.48-1.06-2.38-2.52-2.55-4.3c-0.08-0.89-0.42-1.39-1.15-1.77
		c-1.38-0.71-2.17-1.86-2.42-3.38c-0.07-0.42-0.06-0.85-0.09-1.3c-0.55,0.11-0.9,0.32-0.91,0.92c-0.01,0.43-0.12,0.86-0.13,1.3
		c-0.01,0.36-0.17,0.52-0.5,0.5c-1.65-0.11-3.3-0.23-5.1-0.36c0.25-1.9,0.48-3.7,0.71-5.49c-0.96,0.36-1.9,0.7-2.83,1.07
		c-0.13,0.05-0.24,0.29-0.27,0.46c-0.11,0.68-0.23,1.37-0.28,2.06c-0.13,1.75-0.22,3.51-0.33,5.26c-0.03,0.43,0.14,0.58,0.58,0.59
		c1.32,0.02,2.65,0.08,3.97,0.12c1.22,0.04,2.43,0.07,3.66,0.1c0.01,0.18,0.03,0.28,0.03,0.37c-0.06,4.67,0.42,9.28,1.44,13.84
		c0.09,0.42-0.11,0.46-0.41,0.52c-1.51,0.3-3.02,0.6-4.54,0.9c-0.15,0.03-0.3,0.04-0.52,0.06c-0.42-2.53-0.83-5.02-1.26-7.59
		c-0.8,0.11-1.53,0.22-2.28,0.3c-0.42,0.05-0.52,0.25-0.45,0.64c0.41,2.44,0.78,4.88,1.23,7.31
		C81.07,142.7,81.46,143.99,81.79,145.3z M188.67,143.04c-0.02,0.07-0.04,0.11-0.04,0.15c0.03,0.15,0.08,0.31,0.12,0.46
		c0.37,1.32,0.38,2.72-0.23,3.88c-0.45,0.87-0.53,1.73-0.71,2.61c-0.03,0.15-0.08,0.3-0.13,0.46c-0.22,0.67-0.46,2.96-0.35,3.67
		c0.35,2.24-0.07,4.31-1.3,6.23c-0.44,0.68-0.87,1.38-1.17,2.12c-0.36,0.88-0.74,1.81-0.82,2.75c-0.15,1.84-0.05,3.7-0.13,5.55
		c-0.04,0.93-0.22,1.85-0.37,2.97c8.58-6.28,15.12-14.04,19.44-23.59c4.72-10.43,6.29-21.34,4.59-32.75
		c-0.95,0.28-1.54-0.19-2.08-0.79c-0.17-0.19-0.34-0.39-0.53-0.56c-0.38-0.33-0.75-0.41-1.23-0.09c-0.37,0.24-0.37,0.53-0.39,0.9
		c-0.08,1.45-0.21,2.89-1.47,3.9c-0.13,0.1-0.19,0.29-0.25,0.45c-0.18,0.49-0.26,1.04-0.54,1.47c-0.8,1.24-1.76,2.31-3.43,2.29
		c-0.1,0-0.2,0.08-0.32,0.13c0.11,0.25,0.21,0.46,0.3,0.68c0.88,2.25,0.61,4.48-0.19,6.66c-0.75,2.07-1.57,4.13-2.42,6.16
		c-0.61,1.45,0.08,2.52,0.89,3.56c0.2,0.26,0.43,0.47,0.2,0.74c-0.14,0.17-0.47,0.27-0.71,0.25c-0.66-0.06-1.31-0.21-1.97-0.31
		c-0.15-0.02-0.31,0.01-0.46,0.03c-0.58,0.07-1.16,0.22-1.74,0.22C190.4,143.22,189.56,143.11,188.67,143.04z M210.28,115.2
		c-0.47,0.63-0.91,1.2-1.31,1.79c-0.09,0.14-0.07,0.37-0.05,0.55c0.26,2.41,0.69,4.81,0.75,7.23c0.17,6.9-0.92,13.64-3.14,20.18
		c-2.27,6.67-5.54,12.81-9.89,18.34c-3.76,4.77-8.21,8.83-13.21,12.27c-0.21,0.14-0.46,0.29-0.56,0.5c-0.39,0.83-0.72,1.7-1.11,2.54
		c-0.24,0.51-0.52,1.02-0.85,1.48c-0.43,0.59-0.93,1.12-1.45,1.75c0.67,1.3,1.44,2.81,2.22,4.34c-0.26,0.14-0.45,0.25-0.64,0.34
		c-1.52,0.71-3.04,1.44-4.57,2.13c-0.38,0.17-0.54,0.37-0.37,0.77c0.25,0.58,0.5,1.16,0.75,1.73c0.15,0.35,0.37,0.44,0.75,0.26
		c1.61-0.77,3.24-1.47,4.83-2.27c1.21-0.61,2.36-1.34,3.64-2.06c-1.48-2.45-2.91-4.81-4.36-7.2c3.29-2.26,6.66-4.33,9.54-7.14
		c1.25,1.4,2.43,2.72,3.69,4.13c-0.66,0.6-1.26,1.2-1.91,1.73c-1.04,0.85-2.12,1.66-3.18,2.48c-0.2,0.16-0.43,0.32-0.19,0.63
		c0.47,0.62,0.94,1.26,1.43,1.91c3.22-2.07,6.02-4.51,8.68-7.37c-2.02-1.95-4-3.85-5.97-5.76c0.11-0.16,0.15-0.22,0.21-0.28
		c2.6-2.83,5.13-5.71,7.31-8.88c0.24-0.35,0.48-0.26,0.75-0.08c0.93,0.61,1.86,1.2,2.78,1.81c1.4,0.92,1.4,0.93,0.39,2.29
		c-1.06,1.43-2.12,2.85-3.19,4.29c0.1,0.13,0.17,0.26,0.27,0.34c0.47,0.39,0.96,0.76,1.42,1.16c0.32,0.27,0.54,0.21,0.79-0.1
		c2.17-2.63,4.23-5.33,5.82-8.36c0.07-0.13,0.12-0.28,0.19-0.44c-0.25-0.15-0.47-0.29-0.69-0.42c-1.94-1.14-3.89-2.28-5.83-3.43
		c-0.56-0.33-0.58-0.46-0.26-1.03c0.71-1.28,1.47-2.53,2.09-3.85c0.89-1.89,1.7-3.83,2.51-5.76c0.18-0.43,0.36-0.53,0.79-0.33
		c0.58,0.26,1.18,0.45,1.78,0.66c0.95,0.33,1.9,0.66,2.87,0.99c-0.09,0.27-0.14,0.48-0.23,0.68c-0.68,1.62-1.35,3.25-2.07,4.86
		c-0.18,0.39-0.13,0.64,0.24,0.82c0.53,0.26,1.08,0.5,1.62,0.73c0.33,0.14,0.54,0.03,0.69-0.31c0.74-1.73,1.55-3.42,2.23-5.17
		c0.59-1.5,1.03-3.06,1.56-4.65c-2.74-0.84-5.38-1.65-8.01-2.45c0.04-0.18,0.05-0.28,0.08-0.37c0.99-3.67,1.76-7.39,2.11-11.18
		c0.04-0.43,0.27-0.49,0.58-0.47c1.1,0.07,2.21,0.15,3.31,0.24c0.52,0.04,1.04,0.11,1.71,0.17c-0.31,2.28-0.62,4.49-0.93,6.76
		c0.89,0.18,1.71,0.34,2.57,0.51c0.1-0.35,0.22-0.62,0.27-0.91c0.23-1.22,0.51-2.44,0.64-3.68c0.2-2.04,0.3-4.1,0.44-6.14
		c0.03-0.41-0.15-0.55-0.55-0.55c-1.19-0.01-2.37-0.08-3.56-0.09c-1.36-0.02-2.72,0-4.13,0c0-0.39,0-0.6,0-0.82
		c0.03-3.21-0.26-6.39-0.67-9.58C211.54,116.36,210.81,115.86,210.28,115.2z M79.78,111.62c0.09-0.11,0.18-0.23,0.28-0.34
		c1.14-1.37,2.22-2.78,3.43-4.09c1.74-1.89,3.78-3.41,5.98-4.74c2.46-1.49,4.84-3.16,7.8-3.56c0.15-0.02,0.3-0.11,0.46-0.12
		c1.14-0.09,2.29-0.32,3.4-0.2c1.34,0.14,2.66,0.56,3.98,0.91c0.68,0.18,1.28,0.13,1.88-0.22c0.59-0.35,1.16-0.81,1.81-0.99
		c1.14-0.32,2.13-0.92,3.15-1.47c0.95-0.51,1.98-0.66,3.04-0.68c0.31,0,0.57,0.12,0.56,0.53c-0.01,0.37-0.03,0.58-0.52,0.65
		c-2.62,0.36-4.79,1.67-6.54,3.55c-1.68,1.79-2.77,3.99-3.45,6.35c-0.05,0.18,0.07,0.54,0.21,0.61c0.6,0.32,1.23,0.62,1.88,0.83
		c2.25,0.71,4.42,0.55,6.41-0.8c1.52-1.03,3.02-2.1,4.5-3.19c1.45-1.06,2.96-1.95,4.74-2.36c2.88-0.67,5.6-0.35,8.2,1.07
		c1.56,0.85,3.14,1.69,4.76,2.41c1.68,0.76,3.46,0.98,5.26,0.38c0.6-0.2,1.2-0.41,1.79-0.63c2.09-0.81,3.51-2.32,4.38-4.33
		c0.48-1.11,0.79-2.3,1.22-3.44c0.13-0.35,0.01-0.51-0.26-0.67c-0.77-0.46-1.58-0.46-2.32-0.04c-0.71,0.41-1.39,0.91-1.99,1.47
		c-1.19,1.12-2.28,2.33-3.46,3.46c-1.66,1.58-3.69,1.6-5.68,0.97c-2.02-0.64-3.94-1.59-5.92-2.39c-0.84-0.34-1.69-0.69-2.56-0.91
		c-0.63-0.16-0.96-0.46-1.12-1.06c-0.05-0.18-0.23-0.39-0.41-0.47c-0.77-0.35-1.58-0.62-2.35-0.99c-1.78-0.87-3.57-1.41-5.51-0.48
		c-0.17,0.08-0.57-0.05-0.7-0.22c-0.14-0.16-0.13-0.5-0.08-0.74c0.04-0.19,0.21-0.38,0.35-0.53c0.99-1.02,1.92-2.11,3-3.01
		c1.19-0.99,2.62-1.79,4.21-1.65c2.13,0.18,4.07-0.71,6.24-0.71c-0.19-0.45-0.36-0.8-0.49-1.16c-0.68-1.91-1.8-3.49-3.37-4.77
		c-1.24-1.01-2.62-1.4-4.2-1.26c-0.52,0.04-0.88,0.25-1.2,0.65c-0.34,0.43-0.75,0.82-1.19,1.29c0.06,0.12,0.19,0.34,0.28,0.57
		c0.18,0.45,0.42,0.9,0.5,1.37c0.19,1.1,0.01,2.18-0.41,3.21c-0.8,1.98-2.04,3.62-4,4.57c-3.23,1.57-6.65,2.05-10.22,1.73
		c-2.75-0.25-5.51-0.43-8.28-0.55c-1.64-0.07-3.31-0.04-4.8,0.79c-1.2,0.67-2.37,1.42-3.51,2.19c-3.41,2.29-6.08,5.26-7.98,8.91
		C80.3,108.67,79.81,110.06,79.78,111.62z M119.17,112.87c-3.5,1.36-6.86,1.57-10.03-0.19c-3.29,1.07-5.58,0.04-7.11-3.1
		c-0.19,0.43-0.34,0.68-0.41,0.95c-0.34,1.2,0.25,2.11,0.89,3.06c0.82,1.22,1.62,2.48,2.28,3.8c0.54,1.09,0.88,2.29,0.88,3.54
		c-0.01,2.81-0.74,5.39-2.49,7.62c-0.52,0.66-0.74,1.33-0.51,2.14c0.58,2.07,1.74,3.74,3.39,5.1c0.25,0.21,0.52,0.45,0.66,0.73
		c0.62,1.24,1.59,1.87,2.97,2.04c1.67,0.21,2.89-0.76,2.72-2.3c-0.05-0.01-0.11-0.03-0.17-0.02c-2.12,0.2-3.83-0.96-4.46-3
		c-0.24-0.76-0.19-1.45,0.41-2.02c0.62-0.59,1.3-0.9,2.2-0.59c0.87,0.3,1.28,0.93,1.56,1.73c0.19,0.56,0.35,1.13,0.59,1.67
		c0.52,1.19,1.41,1.6,2.46,1.15c0.28-0.12,0.6-0.29,0.77-0.53c0.53-0.75,1.08-1.51,1.47-2.33c0.49-1.03,0.83-2.12,1.25-3.18
		c0.1-0.26,0.23-0.51,0.36-0.81c-0.24-0.05-0.4-0.08-0.55-0.12c-1.09-0.29-2.02-0.76-2.66-1.77c-0.47-0.74-0.34-1.52-0.32-2.3
		c0.03-2,1.41-3.96,3.3-4.56c0.49-0.16,0.55-0.35,0.42-0.79c-0.43-1.46-0.56-2.95-0.18-4.45
		C118.97,113.87,119.05,113.43,119.17,112.87z M116.85,188.79c0.37,0.25,0.67,0.52,1.02,0.68c2.49,1.11,4.99,2.19,7.48,3.29
		c0.48,0.21,0.69,0.09,0.86-0.41c0.79-2.28,1.63-4.54,2.41-6.82c0.16-0.45,0.34-0.52,0.77-0.38c3.15,1.06,6.33,2.01,9.64,2.43
		c0.4,0.05,0.49,0.22,0.43,0.58c-0.19,1.13-0.37,2.26-0.56,3.39c-0.09,0.58-0.19,1.15-0.29,1.75c-2.11-0.44-4.13-0.86-6.2-1.3
		c-0.25,0.91-0.48,1.77-0.73,2.69c3.17,0.94,6.31,1.57,9.54,1.84c0.37-2.83,0.73-5.58,1.08-8.23c3.55,0.1,6.98,0.2,10.5,0.3
		c0.07,1.77,0.15,3.58,0.23,5.44c-0.36,0.03-0.65,0.09-0.94,0.09c-1.13,0-2.25-0.03-3.38-0.03c-0.63,0-1.25,0.04-1.88,0.07
		c-0.07,0.7-0.14,1.41-0.2,2.11c0,0.04,0.01,0.08,0.01,0.12c0,0.43,0.17,0.61,0.64,0.63c2.73,0.12,5.46,0.12,8.18-0.18
		c0.76-0.09,0.8-0.11,0.73-0.87c-0.22-2.32-0.44-4.64-0.66-6.97c-0.06-0.62,0.07-0.74,0.7-0.83c1.78-0.25,3.56-0.49,5.33-0.8
		c1.49-0.26,2.97-0.62,4.48-0.95c0.09,0.23,0.17,0.4,0.22,0.59c0.4,1.41,0.78,2.82,1.2,4.22c0.15,0.49,0,0.66-0.48,0.75
		c-1.55,0.32-3.08,0.7-4.63,1.02c-0.42,0.09-0.51,0.29-0.42,0.66c0.13,0.54,0.27,1.08,0.36,1.62c0.08,0.46,0.26,0.64,0.75,0.52
		c2.51-0.64,5.02-1.23,7.52-1.89c0.91-0.24,0.91-0.32,0.62-1.26c-0.66-2.11-1.35-4.21-1.99-6.33c-0.26-0.88-0.37-0.74,0.53-1.07
		c0.94-0.35,1.89-0.71,2.83-1.07c0.15-0.06,0.29-0.14,0.54-0.26c-0.26-0.05-0.4-0.08-0.53-0.09c-1.33-0.14-2.67-0.23-3.99-0.42
		c-0.73-0.11-1.39-0.02-2.09,0.19c-5.32,1.58-10.77,2.35-16.32,2.37c-6.01,0.02-11.9-0.82-17.68-2.48c-0.23-0.07-0.52-0.08-0.74,0
		c-1.68,0.62-3.41,0.85-5.19,0.68c-0.41-0.04-0.64,0.07-0.78,0.5c-0.36,1.05-0.77,2.07-1.18,3.1c-0.18,0.45-0.4,0.88-0.62,1.36
		c-2.01-0.95-3.92-1.86-5.86-2.78C117.69,187.21,117.29,187.96,116.85,188.79z M118.72,83.34c0.05-0.07,0.13-0.18,0.19-0.3
		c0.62-1.15,1.61-1.77,2.88-1.92c2.05-0.24,3.84,0.32,5.43,1.66c2.12,1.78,3.37,4.05,3.94,6.72c0.09,0.44,0.25,0.67,0.63,0.88
		c1.24,0.68,2.46,1.41,3.67,2.15c0.43,0.26,0.77,0.67,1.22,0.87c0.64,0.29,1.34,0.45,2.02,0.67c0.34,0.11,0.65,0.14,0.9-0.19
		c1.35-1.76,3.22-2.4,5.36-2.4c2.63,0,4.33,1.38,4.71,3.98c0.18,1.22,0.41,2.22,1.35,3.18c1.64,1.67,3.35,3.12,5.7,3.6
		c0.67,0.14,0.84-0.03,0.63-0.68c-0.04-0.13-0.26-0.26-0.43-0.3c-1.36-0.4-2.71-0.87-3.56-2.09c-0.58-0.83-1.03-1.76-1.47-2.68
		c-1-2.09-1.19-4.33-1.1-6.6c0.04-0.96,0.2-1.91,0.31-2.87c-0.54-0.03-1.05-0.06-1.56-0.07c-1.44-0.02-2.3-0.95-2.88-2.07
		c-0.3-0.57-0.64-0.93-1.14-1.27c-0.36-0.24-0.53-0.14-0.84,0.1c-0.8,0.6-1.6,1.31-2.52,1.61c-1.72,0.57-3.33-0.06-4.56-1.28
		c-0.63-0.62-1.19-1.12-2.02-1.51c-1.76-0.82-3.04-2.19-3.3-4.26c-0.02-0.19-0.14-0.45-0.29-0.52c-1.37-0.65-2.76-1.26-4.14-1.9
		c-1.8-0.82-3.65-1.56-4.66-3.45c-0.05-0.09-0.38-0.14-0.47-0.07c-0.55,0.45-1.15,0.87-1.56,1.42c-0.94,1.27-1.2,2.72-0.77,4.27
		c0.2,0.71,0.01,1.11-0.58,1.25c-1.27,0.29-2.33,0.97-3.29,1.81c-0.29,0.25-0.56,0.52-0.84,0.78
		C116.71,82.37,117.68,82.84,118.72,83.34z M158.73,56.09c-0.3,2.35-0.53,4.52-0.89,6.66c-0.15,0.9,0.2,1.4,0.84,1.83
		c0.32,0.22,0.69,0.38,1.06,0.5c1.03,0.35,2.08,0.63,3.1,0.99c1.08,0.38,2.07,0.93,2.72,1.91c0.25,0.38,0.54,0.46,0.95,0.4
		c0.47-0.06,0.94-0.16,1.41-0.13c2.84,0.17,5.16,1.48,7.21,3.38c0.64,0.59,1.32,1.15,2.05,1.61c1.44,0.9,2.93,1.72,4.41,2.57
		c0.21,0.12,0.47,0.21,0.71,0.23c2.11,0.19,4.01,0.8,5.53,2.38c1.45,1.51,2.84,3.08,4.63,4.23c0.93,0.6,1.77,1.34,2.69,1.94
		c0.52,0.34,1.13,0.71,1.71,0.74c0.36,0.02,0.75-0.57,1.12-0.89c0.35-0.3,0.68-0.6,1.02-0.9c0.67-0.6,1.35-1.19,2.06-1.83
		c0.13,0.16,0.22,0.26,0.31,0.37c1.18,1.49,2.35,2.98,3.54,4.46c0.11,0.14,0.4,0.33,0.48,0.28c0.74-0.43,1.44-0.91,2.17-1.39
		c-1.93-3.01-4.09-5.63-6.49-8.06c-0.27-0.27-0.49-0.27-0.76-0.02c-0.62,0.61-1.26,1.2-1.88,1.81c-1.26,1.22-2.52,2.45-3.72,3.62
		c-2.89-2.46-5.7-4.86-8.55-7.28c1-1.44,2.04-2.93,3.11-4.46c1.7,1.27,3.34,2.51,5.04,3.79c0.5-0.6,0.97-1.18,1.46-1.75
		c0.25-0.29,0.23-0.52-0.07-0.74c-2.41-1.79-4.82-3.59-7.23-5.38c-0.34-0.25-0.59-0.19-0.82,0.18c-1.28,2.05-2.58,4.07-3.83,6.13
		c-0.28,0.46-0.46,0.49-0.91,0.23c-2.08-1.19-4.17-2.35-6.27-3.48c-0.88-0.47-1.81-0.85-2.77-1.29c0.68-1.72,1.34-3.4,2.04-5.16
		c2.03,0.96,3.95,1.87,5.91,2.81c0.38-0.71,0.7-1.36,1.07-1.99c0.19-0.33,0.15-0.55-0.16-0.74c-0.17-0.1-0.32-0.24-0.5-0.32
		c-2.55-1.13-5.1-2.24-7.65-3.37c-0.49-0.22-0.69-0.06-0.86,0.43c-0.77,2.24-1.59,4.47-2.36,6.71c-0.17,0.5-0.37,0.62-0.89,0.44
		c-3.04-1-6.1-1.96-9.3-2.36c-0.24-0.03-0.48-0.1-0.78-0.16c0.31-1.89,0.62-3.72,0.92-5.58c2.1,0.44,4.12,0.86,6.2,1.29
		c0.22-0.81,0.45-1.58,0.63-2.37c0.03-0.12-0.16-0.39-0.3-0.43c-0.81-0.24-1.63-0.49-2.46-0.65C163.2,56.88,161,56.5,158.73,56.09z
		 M220.94,115.21c0.04-0.18,0.09-0.3,0.08-0.4c-0.1-1.04-0.12-2.09-0.33-3.1c-0.55-2.68-1.49-5.19-3.45-7.2
		c-0.12-0.13-0.26-0.27-0.31-0.43c-0.3-0.99-1.11-1.59-1.8-2.23c-2-1.85-4.03-3.67-6.14-5.4c-1.62-1.33-3.38-2.48-5.33-3.28
		c-2.49-1.02-5.04-1.76-7.77-1.96c-3.13-0.23-6.24-0.73-9.36-1.09c-2.77-0.33-5.37-1.13-7.64-2.81c-0.73-0.54-1.45-1.08-2.16-1.64
		c-0.26-0.21-0.46-0.2-0.74-0.04c-2,1.13-4.07,1.34-6.29,0.66c-0.87-0.27-1.84-0.44-2.73-0.33c-1.16,0.13-2.32,0.49-3.42,0.92
		c-1.3,0.5-2.55,1.16-3.81,1.77c-1.35,0.65-2.74,1.12-4.27,1.03c-0.38-0.02-0.75-0.04-1.29-0.06c0.29,0.27,0.46,0.45,0.66,0.6
		c1.3,0.97,2.82,1.23,4.38,1.21c1.94-0.02,3.87-0.2,5.8-0.25c1.21-0.03,2.47,0.04,3.51,0.68c0.81,0.5,1.55,0.39,2.31,0.16
		c1.3-0.4,2.57-0.89,3.86-1.33c2.45-0.84,4.96-1.05,7.47-0.4c2.36,0.62,4.76,0.74,7.17,0.74c2.29,0,4.48,0.44,6.6,1.23
		c0.66,0.25,1.28,0.69,1.95,0.79c1.45,0.22,2.77,0.7,4.05,1.41c2.3,1.27,3.83,3.32,5.49,5.25c0.38,0.44,0.86,0.81,1.19,1.28
		c0.54,0.79,0.98,1.64,1.48,2.46c0.61,1.01,1.22,2.01,1.86,3c0.29,0.44,0.7,0.81,0.96,1.27c1.1,1.96,2.78,3.36,4.47,4.75
		c0.25,0.21,0.57,0.33,0.83,0.53c0.34,0.27,0.63,0.59,0.96,0.87c0.43,0.37,0.88,0.72,1.33,1.07
		C220.63,115.02,220.76,115.09,220.94,115.21z M172.8,149.09c-0.15,0.1-0.25,0.14-0.3,0.22c-0.22,0.37-0.42,0.76-0.64,1.13
		c-1.83,3.11-4.09,5.82-6.85,8.18c-2.22,1.89-4.23,4.02-6.36,6.02c-0.53,0.5-1.08,1.03-1.72,1.32c-1.16,0.53-2.39,0.93-3.61,1.3
		c-2.25,0.69-4.57,0.52-6.88,0.53c-2.28,0.01-4.03-0.94-5.53-2.53c-1.93-2.02-4.05-3.81-6.3-5.48c-1.51-1.12-2.98-2.36-4.22-3.77
		c-2.05-2.33-3.35-5.15-4.61-7.97c-0.05-0.1-0.07-0.21-0.1-0.32c-0.06,0.05-0.12,0.1-0.18,0.15c0,0.53-0.01,1.05,0,1.58
		c0.01,0.59-0.07,1.21,0.09,1.75c0.77,2.69,1.79,5.3,3.31,7.64c1.34,2.08,2.9,4.05,4.51,5.94c1.56,1.83,3.28,3.54,5.36,4.82
		c0.9,0.56,1.82,1.06,2.92,0.54c0.12-0.06,0.27-0.07,0.4-0.1c1.96-0.4,3.88-0.56,5.66,0.65c0.1,0.07,0.29,0.11,0.39,0.06
		c1.32-0.59,2.58-0.31,3.86,0.17c0.22,0.08,0.56,0.06,0.77-0.05c1.31-0.69,2.7-1.19,4.17-1.28c1.42-0.09,2.52-0.75,3.56-1.57
		c1.59-1.26,3.18-2.54,4.5-4.11c1.08-1.28,2.34-2.41,3.47-3.65c2.04-2.26,3.84-4.72,5.52-7.26c0.29-0.43,0.32-0.74,0.1-1.18
		C173.64,150.95,173.25,150.06,172.8,149.09z M106.45,101.37c-1.1-0.29-2.25-0.61-3.42-0.88c-0.71-0.17-1.44-0.33-2.16-0.36
		c-1.9-0.08-3.77,0.21-5.5,0.97c-1.64,0.73-3.23,1.6-4.76,2.53c-4.31,2.63-7.83,6.06-10.4,10.44c-0.13,0.21-0.24,0.43-0.4,0.73
		c0.2-0.01,0.3,0,0.39-0.03c1.39-0.53,2.8-1.08,3.82-2.21c1.24-1.37,2.36-2.86,3.55-4.29c0.98-1.17,2.04-2.24,3.37-3.03
		c0.94-0.56,1.82-1.24,2.77-1.79c0.79-0.47,1.63-0.87,2.48-1.22c0.32-0.13,0.78-0.12,1.09,0.02c0.25,0.12,0.46,0.52,0.49,0.82
		c0.02,0.17-0.29,0.48-0.51,0.58c-0.54,0.23-1.13,0.33-1.67,0.55c-1.38,0.56-2.88,2.14-2.26,3.93c0.31,0.89,0.87,1.73,1.48,2.46
		c0.93,1.1,2.35,1.49,3.58,2.17c0.99,0.55,1.64,1.35,2.01,2.39c0.69,1.97,0.42,3.88-0.36,5.78c-0.76,1.85-3.4,3.77-5.64,3.34
		c-0.07-0.01-0.14,0.02-0.26,0.04c0.09,1.09,0.3,2.11,1.11,2.87c0.59,0.55,1.21,1.08,1.89,1.52c1.58,1.03,3.63,0.62,4.7-0.92
		c0.58-0.84,1.13-1.71,1.56-2.63c1.9-4.13,0.62-7.29-1.95-10.58c-1.23-1.57-1.72-3.22-1.14-5.13c0.15-0.51,0.47-0.99,1.04-1.01
		c0.94-0.03,1.81,0.14,2.22,1.18c0.57,1.45,1.83,1.8,3.2,1.92c0.19,0.02,0.39-0.04,0.71-0.07c-0.87-0.78-1.4-1.67-2.47-1.99
		c-0.41-0.12-0.82-0.42-1.11-0.75c-0.2-0.23-0.33-0.67-0.26-0.96c0.18-0.76,0.42-1.52,0.75-2.24
		C105.05,104.1,105.78,102.71,106.45,101.37z M171.24,93.71c0.32,0.4,0.62,0.84,0.98,1.21c1.47,1.53,2.47,3.3,2.95,5.38
		c0.23,0.99,0.42,2.04,0.9,2.92c0.7,1.3,1.02,2.64,1.06,4.08c0.01,0.5,0.21,0.79,0.66,1.01c1.44,0.68,2.96,0.67,4.48,0.48
		c0.47-0.06,1.01-0.31,1.33-0.65c0.8-0.84,1.59-0.64,2.24-0.2c0.81,0.56,1.56,1.22,2.35,1.8c0.21,0.15,0.52,0.29,0.76,0.27
		c1.48-0.13,2.61,0.45,3.5,1.59c0.33,0.42,0.64,0.86,0.97,1.28c0.64,0.81,2.41,1.38,3.39,1.09c0.21-0.06,0.41-0.19,0.62-0.29
		c-1.61-2.39-1.23-6.59,0.75-9.11c-0.48-1.46-1.79-2.06-2.94-2.76c-1.19-0.72-2.59-0.84-3.95-0.86c-0.72-0.01-1.48,0.06-2.15,0.31
		c-0.78,0.29-1.55,0.46-2.37,0.39c-0.79-0.06-1.57-0.15-2.36-0.26c-2.51-0.35-4.88-1.1-6.86-2.72c-1.54-1.26-2.95-2.69-4.38-4.08
		C172.64,94.06,172.02,93.8,171.24,93.71z M134.35,73.79c0.33,0.52,0.83,0.69,1.36,0.75c2.65,0.3,4.52,1.55,5.44,4.17
		c0.41,1.16,1.26,1.85,2.67,1.9c1.22,0.05,2.36,0.59,3.01,1.81c0.33,0.61,0.73,1.17,1.12,1.75c0.95,1.39,3.59,1.38,4.2-0.24
		c0.33-0.88,0.72-1.75,1.01-2.65c0.79-2.43,0.87-4.88,0.21-7.35c-0.07-0.25-0.14-0.41-0.5-0.44c-2.54-0.2-4.06-3.08-2.83-5.31
		c0.12-0.21,0.2-0.44,0.31-0.69c-2.15-0.58-4.21-0.55-6.18,0.3c-1.5,0.65-2.95,1.42-4.34,2.29
		C137.96,71.24,136.19,72.53,134.35,73.79z M202.05,99.28c-0.93-1.03-1.84-2.01-2.73-3c-0.26-0.29-0.47-0.64-0.76-0.91
		c-1.65-1.52-3.58-2.56-5.81-2.86c-1.72-0.23-3.46-0.24-5.2-0.32c-1.8-0.08-3.57-0.24-5.33-0.7c-1.62-0.42-3.29-0.74-4.98-0.3
		c-1.48,0.38-2.95,0.78-4.59,1.21c0.51,0.33,0.9,0.51,1.18,0.78c1.04,1,2.07,2.01,3.05,3.07c1.2,1.3,2.6,2.34,4.23,2.97
		c1.22,0.47,2.55,0.72,3.85,0.94c1.2,0.21,2.41,0.37,3.64,0.03c1.5-0.41,3.03-0.54,4.56-0.17c1.87,0.44,3.74,0.87,5.68,0.67
		C200.11,100.55,201.23,100.15,202.05,99.28z M156.04,173.99c-0.03,0.05-0.06,0.1-0.09,0.15c0.15,0.1,0.3,0.22,0.46,0.3
		c1.82,0.93,3.55,1.98,5,3.43c1.39,1.39,2.97,2.45,4.81,3.18c1.49,0.59,3.04,0.88,4.6,1.08c1.69,0.22,3.39,0.26,5.04-0.37
		c3.25-1.25,4.79-3.88,5.77-6.99c0.69-2.21,0.83-4.5,0.91-6.8c0.03-0.98-0.19-1.98-0.08-2.95c0.17-1.46,0.66-2.85,1.48-4.09
		c0.9-1.36,1.73-2.76,1.88-4.43c0.07-0.75-0.02-1.51-0.04-2.26c-0.07-0.01-0.14-0.02-0.21-0.04c-0.59,0.52-1.14,1.1-1.76,1.56
		c-0.88,0.65-1.43,1.47-1.71,2.53c-0.22,0.84-0.49,1.68-0.88,2.45c-0.8,1.59-1.42,3.21-1.45,5.02c-0.01,0.63-0.01,1.26-0.07,1.89
		c-0.19,2.02-0.11,4.09-0.97,5.99c-0.45,0.98-0.96,1.94-1.45,2.9c-0.04,0.08-0.14,0.17-0.22,0.19c-0.86,0.18-1.74,0.55-2.58,0.48
		c-1.6-0.13-3.07-0.82-4.51-1.55c-2.5-1.26-5.02-2.5-7.58-3.66c-2.78-1.26-5.6-1.19-8.39,0.03c-0.13,0.06-0.26,0.14-0.41,0.23
		c0.3,0.45,0.59,0.73,1.15,0.49c0.26-0.11,0.58-0.09,0.88-0.11c2.46-0.14,4.54,0.76,6.44,2.27c1.97,1.56,4.01,3.03,6.41,3.89
		c2.47,0.89,5,1.31,7.62,0.65c0.18-0.05,0.4,0.02,0.61,0.03c-0.2,0.83-1.25,1.73-2.11,1.74c-1.14,0.02-2.3,0.02-3.43-0.13
		c-3.98-0.53-7.16-2.73-10.21-5.1C159.45,174.83,157.89,174.13,156.04,173.99z M123.69,70.05c0.35,0.68,0.66,1.24,0.93,1.81
		c0.19,0.41,0.38,0.47,0.81,0.27c4.6-2.12,9.39-3.64,14.39-4.48c1.23-0.21,2.37-0.58,3.52-1.11c2.6-1.19,5.32-1.45,8.06-0.35
		c0.14,0.06,0.32,0.11,0.45,0.07c1.04-0.28,1.8-0.91,2.38-2c-2.42,0-4.72,0-7.1,0c-0.08-1.92-0.16-3.75-0.23-5.64
		c2.15,0,4.18,0,6.36,0c0-0.87,0.03-1.67-0.02-2.47c-0.01-0.16-0.3-0.42-0.47-0.44c-2.79-0.17-5.57-0.14-8.35,0.15
		c-0.6,0.06-0.76,0.28-0.7,0.86c0.25,2.32,0.44,4.64,0.69,6.96c0.06,0.56-0.13,0.82-0.68,0.85c-0.37,0.02-0.75,0.04-1.12,0.11
		c-2.74,0.51-5.48,1.02-8.21,1.56c-0.39,0.08-0.58,0.01-0.69-0.38c-0.34-1.24-0.7-2.47-1.05-3.71c-0.34-1.22-0.34-1.22,0.87-1.48
		c0.14-0.03,0.27-0.05,0.41-0.09c1.36-0.31,2.72-0.62,4.17-0.96c-0.22-0.96-0.41-1.84-0.62-2.76c-0.28,0.03-0.5,0.04-0.7,0.09
		c-2.54,0.64-5.08,1.31-7.63,1.93c-0.61,0.15-0.65,0.48-0.49,0.95c0.33,1.02,0.67,2.03,0.99,3.05c0.45,1.43,0.88,2.86,1.31,4.27
		C128.53,68.12,126.19,69.05,123.69,70.05z M147.51,173.62c-0.05-0.62-0.09-1.13-0.15-1.63c-0.01-0.08-0.09-0.19-0.17-0.21
		c-0.74-0.25-1.48-0.61-2.24-0.7c-1.35-0.15-2.71,0.13-3.94,0.66c-2.21,0.95-4.43,1.91-6.53,3.09c-2.38,1.33-4.78,2.62-7.29,3.71
		c-1.3,0.56-2.63,0.93-4.02,0.39c-0.41-0.16-0.83-0.41-1.14-0.72c-1-1-1.24-2.35-1.31-3.64c-0.11-1.84-0.12-3.71,0.08-5.54
		c0.18-1.66,0.1-3.27-0.11-4.89c-0.23-1.85-1.1-3.3-2.8-4.21c-1.37-0.74-2.64-1.6-3.21-3.17c-0.01-0.02-0.07-0.03-0.17-0.08
		c-0.03,0.2-0.08,0.38-0.1,0.57c-0.12,1.73,0.72,2.88,2.16,3.71c0.82,0.47,1.62,0.98,2.38,1.54c0.7,0.52,1.03,1.3,1.09,2.16
		c0.02,0.23-0.16,0.54-0.35,0.68c-0.11,0.08-0.42-0.07-0.63-0.15c-0.14-0.05-0.25-0.16-0.46-0.31c-0.21,1.17-0.43,2.24-0.61,3.33
		c-0.34,2.1-0.77,4.15-0.58,6.34c0.2,2.38,1.33,4.17,2.89,5.72c1.34,1.33,3.02,2.2,4.94,2.53c3,0.52,5.78-0.06,8.38-1.59
		c1.67-0.98,3.3-2.04,5.01-2.93c1.22-0.63,2.56-1.04,3.83-1.57c0.16-0.07,0.37-0.21,0.4-0.35c0.09-0.52,0.11-1.06,0.17-1.67
		c-0.45,0.18-0.9,0.33-1.31,0.54c-1.75,0.92-3.47,1.88-5.22,2.78c-1.39,0.71-2.83,1.32-4.21,2.05c-1.21,0.65-2.51,0.82-3.82,0.97
		c-0.35,0.04-0.72-0.14-1.08-0.26c-0.13-0.04-0.32-0.24-0.3-0.29c0.06-0.14,0.19-0.31,0.34-0.35c0.6-0.19,1.22-0.33,1.82-0.52
		c0.94-0.28,1.92-0.47,2.79-0.9c2.92-1.44,5.8-2.96,8.69-4.45c1.62-0.84,3.28-1.35,5.13-0.78
		C146.37,173.6,146.92,173.56,147.51,173.62z M186.51,124.97c0.45-0.68,0.91-1.29,1.26-1.95c0.52-0.99,2.47-1.95,3.67-1.73
		c1.09,0.2,2.08,0.61,2.99,1.23c0.9,0.61,1.91,0.95,2.99,1.04c1.14,0.1,2.07-0.48,2.4-1.46c-0.39,0.02-0.79,0.08-1.18,0.06
		c-1.43-0.05-2.75-0.47-3.62-1.65c-0.65-0.88-1.09-1.91-1.68-2.84c-0.69-1.09-0.76-2.31-0.92-3.52c-0.04-0.29-0.15-0.59-0.29-0.84
		c-0.16-0.29-0.41-0.52-0.61-0.8c-0.53-0.75-1.27-1.11-2.01-0.94c0.13,0.56,0.24,1.12,0.4,1.67c0.42,1.46-0.02,2.73-0.85,3.9
		c-0.14,0.2-0.43,0.29-0.65,0.44c-0.12-0.2-0.26-0.4-0.36-0.61c-0.09-0.19-0.17-0.4-0.22-0.61c-0.35-1.39-1.1-2.51-2.19-3.41
		c-0.3-0.25-0.59-0.34-0.93,0.09c-0.81,1.01-1.88,1.59-3.2,1.69c-1.71,0.13-3.35-0.08-4.92-1.06c-0.52,1.17-0.04,2.28,0.02,3.33
		c0.16,2.45,0.58,4.88,0.91,7.48c0.4-0.36,0.64-0.63,0.93-0.82c0.67-0.43,1.34-1.14,2.04-1.18c1.88-0.11,3.62,0.51,5.08,1.77
		C185.88,124.5,186.2,124.73,186.51,124.97z M151.97,89.28c-0.02,0.17-0.05,0.34-0.07,0.52c-0.21,2.47,0.38,4.79,1.47,6.98
		c0.88,1.77,2.32,2.84,4.3,3.21c1.48,0.28,2.95,0.26,4.43,0.06c1.39-0.19,2.77-0.53,4.17-0.56c2.32-0.05,4.55,0.46,6.63,1.56
		c0.42,0.22,0.87,0.39,1.42,0.64c-0.43-2.03-1.07-3.77-2.33-5.23c-0.47-0.54-0.92-1.09-1.39-1.62c-1.3-1.47-2.91-2.43-4.88-2.46
		c-2.25-0.03-4.5,0.13-6.75,0.22c-1.75,0.07-3.4-0.22-4.8-1.32C153.39,90.69,152.71,89.97,151.97,89.28z M174.56,117.12
		c0.1-0.05,0.2-0.1,0.29-0.14c0.03-0.2,0.1-0.4,0.07-0.59c-0.09-0.78-0.23-1.56-0.32-2.34c-0.26-2.27-1.57-3.97-3.2-5.36
		c-1.13-0.96-2.54-1.58-4.06-1.84c-1.91-0.33-3.82-0.66-5.7-1.08c-1.17-0.26-2.41-0.55-3.24-1.47c-0.59-0.66-1.26-0.71-2.01-0.85
		c-2.6-0.47-4.67-1.81-6.28-3.9c-0.15-0.19-0.38-0.31-0.62-0.49c-0.09,0.21-0.17,0.35-0.21,0.5c-0.67,2.4-1.79,4.59-3.02,6.73
		c-0.33,0.58-0.26,0.82,0.33,1.12c0.23,0.11,0.48,0.22,0.72,0.25c1.41,0.19,2.82,0.4,4.23,0.51c4.25,0.31,8.46,0.8,12.58,1.93
		c4.01,1.11,7.5,3.02,10.03,6.44C174.31,116.72,174.43,116.92,174.56,117.12z M108.88,69.15c-3.24,2.08-6.03,4.52-8.7,7.38
		c2.01,1.94,4,3.85,5.99,5.76c-0.29,0.35-0.49,0.6-0.69,0.85c0.26,0.06,0.44,0.01,0.62-0.05c1.42-0.4,2.84-0.8,4.26-1.21
		c0.18-0.05,0.36-0.16,0.5-0.28c2.43-2.13,5.02-4.05,7.74-5.78c0.17-0.11,0.35-0.28,0.42-0.46c0.49-1.36,0.93-2.73,1.94-3.63
		c-0.92-1.76-1.8-3.44-2.71-5.17c1.46-0.69,2.82-1.32,4.18-1.96c1.77-0.83,1.82-0.99,0.82-2.75c-0.05-0.09-0.11-0.17-0.15-0.26
		c-0.17-0.36-0.4-0.41-0.76-0.24c-1.68,0.8-3.38,1.54-5.04,2.38c-1.14,0.58-2.22,1.27-3.41,1.95c1.48,2.44,2.91,4.8,4.36,7.2
		c-3.28,2.26-6.65,4.34-9.54,7.13c-1.25-1.4-2.44-2.73-3.67-4.11c0.57-0.53,1.07-1.06,1.64-1.52c1.12-0.91,2.28-1.78,3.41-2.67
		c0.2-0.16,0.51-0.31,0.24-0.66C109.84,70.45,109.37,69.82,108.88,69.15z M181.83,154.49c-0.03,0-0.07,0-0.1,0
		c-1.07,1.43-2.13,2.86-3.22,4.28c-0.88,1.15-1.77,2.28-2.67,3.41c-0.32,0.4-0.65,0.8-0.99,1.18c-0.29,0.33-0.66,0.28-0.95,0.04
		c-0.27-0.22-0.2-0.51,0.02-0.78c1.19-1.45,2.31-2.97,3.57-4.35c1.47-1.62,2.42-3.54,3.42-5.44c0.13-0.24,0.16-0.52,0.24-0.79
		c-0.06-0.03-0.11-0.05-0.17-0.08c-0.19,0.24-0.38,0.48-0.56,0.72c-0.45,0.6-0.87,1.22-1.36,1.79c-0.13,0.14-0.48,0.09-0.72,0.13
		c0.01-0.21-0.04-0.46,0.06-0.62c0.58-1.06,1.19-2.1,1.8-3.14c0.17-0.29,0.28-0.56,0.01-0.86c-0.65-0.74-1.3-1.48-1.99-2.28
		c-1.14,2.11-2.15,4.23-3.38,6.2c-1.24,1.99-2.62,3.91-4.1,5.74c-1.49,1.84-3.13,3.56-4.79,5.25c-1.64,1.67-3.4,3.23-5.19,4.93
		c0.77,0.23,1.59,0.49,2.41,0.69c0.18,0.04,0.46-0.12,0.63-0.27c1.32-1.12,2.64-2.25,3.95-3.4c0.45-0.39,0.84-0.84,1.28-1.23
		c0.11-0.1,0.4-0.13,0.5-0.05c0.11,0.08,0.17,0.36,0.12,0.5c-0.11,0.29-0.27,0.58-0.49,0.79c-1.36,1.29-2.74,2.57-4.12,3.83
		c-0.42,0.38-0.43,0.5,0.05,0.76c0.35,0.19,0.7,0.41,1.07,0.49c0.26,0.06,0.63,0,0.84-0.16c0.92-0.72,1.84-1.44,2.67-2.25
		c1.9-1.87,3.8-3.74,5.6-5.7c1.12-1.22,2.08-2.58,3.07-3.92c1.09-1.47,2.14-2.98,3.18-4.49
		C181.68,155.13,181.72,154.79,181.83,154.49z M134.1,182.42c10.46,2.81,20.88,2.91,31.35,0.11c-2.52-0.84-4.2-2.84-6.19-4.44
		c-0.24,0.34-0.41,0.63-0.62,0.88c-0.62,0.75-1.32,1.48-2.34,1.44c-1.08-0.04-2.17-0.2-3.21-0.49c-0.66-0.18-1.03-0.3-1.71,0.2
		c-1.68,1.25-5.86,1.38-7.34-1.51c-0.34-0.66-0.76-0.68-1.34-0.55c-1.56,0.35-3.01,0.94-4.38,1.77c-1.16,0.71-2.32,1.43-3.48,2.15
		C134.59,182.13,134.35,182.27,134.1,182.42z M179.62,76.64c-0.19-0.22-0.22-0.27-0.27-0.31c-0.16-0.11-0.33-0.23-0.5-0.32
		c-2.17-1.1-4.01-2.67-5.81-4.26c-1.1-0.97-2.36-1.66-3.74-2.11c-2.08-0.68-4.66,0.4-5.48,2.31c-0.46,1.07-0.88,2.18-1.08,3.31
		c-0.37,2.06-0.57,4.14-0.83,6.22c-0.06,0.45-0.09,0.91-0.13,1.36c0.05,0.02,0.11,0.05,0.16,0.07c0.3-0.24,0.6-0.49,0.9-0.73
		c1.22-0.97,2.37-2.03,3.67-2.87c1.18-0.77,2.59-1.19,4.02-0.93c1.77,0.33,3.5,0.32,5.2-0.26
		C177.01,77.68,178.26,77.16,179.62,76.64z M94.9,93.73c0.04,0.08,0.08,0.15,0.12,0.23c0.21,0,0.43-0.01,0.64,0
		c2.78,0.1,5.57,0.12,8.34,0.34c3.46,0.27,6.83,0.28,10.16-1c2.08-0.8,3.49-2.16,4.54-4.02c0.17-0.3,0.1-0.47-0.23-0.57
		c-1.45-0.43-2.88-1.04-4.36-1.27c-3.51-0.54-7-0.18-10.33,1.04c-1.92,0.7-3.77,1.62-5.55,2.64C97.02,91.82,96,92.85,94.9,93.73z
		 M121.06,155.75c-0.71,0.65-0.77,0.84-0.48,1.65c0.1,0.28,0.21,0.56,0.28,0.84c0.67,2.55,1.88,4.86,3.34,7.03
		c1.56,2.32,3.43,4.38,5.43,6.33c0.82,0.81,1.81,1.45,2.75,2.13c0.35,0.26,0.75,0.34,1.09-0.12c-0.96-0.92-1.91-1.8-2.84-2.72
		c-0.32-0.32-0.61-0.67-0.87-1.04c-0.09-0.14-0.14-0.41-0.06-0.53c0.07-0.12,0.34-0.2,0.5-0.16c0.3,0.06,0.64,0.14,0.87,0.33
		c1.02,0.81,2.02,1.65,3.01,2.49c0.73,0.62,1.42,1.02,2.36,0.32c0.54-0.4,1.2-0.65,1.86-0.99c-6.48-4.97-11.4-11-13.95-18.86
		c-0.58,0.52-1.08,1.03-1.64,1.46c-0.37,0.29-0.48,0.59-0.32,1.02c0.61,1.62,1.22,3.24,1.83,4.86c0.24,0.63,0.52,1.24,0.7,1.89
		c0.06,0.2-0.11,0.53-0.28,0.69c-0.08,0.07-0.46-0.07-0.61-0.21c-0.21-0.19-0.38-0.45-0.5-0.72
		C122.7,159.56,121.9,157.68,121.06,155.75z M178.03,84.91c-0.05,0.04-0.09,0.08-0.14,0.12c0.19,0.25,0.34,0.54,0.57,0.75
		c1.5,1.37,3.22,2.43,5.22,2.76c3.03,0.51,6.11,0.79,9.16,1.22c2.29,0.32,4.57,0.65,6.84,1.09c3.47,0.68,6.5,2.4,9.45,4.26
		c0.23,0.15,0.47,0.3,0.67,0.49c2.24,2.03,4.47,4.07,6.7,6.1c0.25,0.22,0.51,0.43,0.76,0.64c0.06-0.05,0.13-0.09,0.19-0.14
		c-0.27-0.58-0.55-1.15-0.8-1.74c-0.77-1.78-2.01-3.25-3.3-4.66c-0.97-1.06-2.08-1.99-3.21-2.88c-1.38-1.09-2.75-2.23-4.29-3.06
		c-1.9-1.03-3.95-1.78-5.96-2.6c-1.78-0.72-3.71-0.64-5.57-0.92c-0.67-0.1-1.37,0.07-2.06,0.09c-2.96,0.07-5.92,0.12-8.88,0.19
		c-1.81,0.04-3.5-0.31-4.94-1.48C178.33,85.06,178.18,84.99,178.03,84.91z M201.15,101.18c0.06,0.13,0.07,0.16,0.08,0.17
		c0.11,0.05,0.21,0.1,0.32,0.15c1.91,0.88,3.39,2.24,4.46,4.03c1.41,2.35,2.71,4.77,4.13,7.13c1,1.66,2.35,3.02,4.03,4.03
		c0.59,0.36,1.15,0.4,1.8,0.18c0.26-0.09,0.6-0.02,0.88,0.07c0.71,0.22,1.4,0.52,2.12,0.73c0.57,0.16,1.07-0.12,1.31-0.64
		c0.28-0.58-0.15-0.82-0.51-1.1c-1.1-0.87-2.23-1.7-3.31-2.61c-2.76-2.32-4.79-5.22-6.67-8.26c-1.47-2.36-2.89-4.76-4.83-6.8
		c-1.34-1.42-2.74-2.74-4.52-3.6c-0.39-0.19-0.8-0.33-1.2-0.5c-0.03,0.05-0.07,0.11-0.1,0.16c0.88,1.03,1.72,2.11,2.67,3.06
		c0.5,0.5,1.22,0.77,1.83,1.15c0.14,0.09,0.35,0.24,0.34,0.34c-0.02,0.19-0.13,0.42-0.29,0.53
		C202.87,100.01,202.01,100.59,201.15,101.18z M187.81,80.13c-1.11-1.96-3.56-2.77-5.35-2.77c-0.02,0-0.04,0.01-0.06,0.01
		c-1.34,0.4-2.71,0.71-4,1.22c-2.26,0.88-4.51,1.64-6.97,1.11c-1.83-0.39-3.5,0.01-5,1.06c-0.82,0.58-1.6,1.23-2.33,1.92
		c-1.41,1.37-2.77,2.8-4.26,4.32c0.39-0.13,0.66-0.2,0.92-0.31c1.14-0.45,2.25-0.98,3.42-1.34c1.8-0.56,3.62-1.03,5.52-0.41
		c2.29,0.74,4.44,0.39,6.46-0.9c0.97-0.62,1.02-0.72,0.47-1.77c-0.22-0.42-0.06-0.73,0.41-0.81c1.18-0.2,2.37-0.38,3.55-0.63
		c2.15-0.45,4.3-0.89,6.52-0.63C187.31,80.21,187.52,80.15,187.81,80.13z M186.65,129.93c0.31,0.1,0.5,0.18,0.71,0.23
		c2.09,0.51,3.74,2.06,4.08,4.14c0.14,0.86,0.22,1.72,0.29,2.59c0.12,1.46,0.18,2.94,1.25,4.1c0.12,0.13,0.26,0.24,0.41,0.37
		c-0.03-0.63-0.16-1.19-0.06-1.7c0.41-2.04,1.14-3.98,2.05-5.83c0.67-1.36,1.08-2.76,1.27-4.23c0.15-1.16,0.09-2.36-0.44-3.43
		c-0.29-0.58-0.75-1.1-1.22-1.55c-0.36-0.35-0.85-0.57-1.3-0.81c-0.64-0.34-1.28-0.72-1.96-0.95c-1.68-0.55-3.61,0.9-3.56,2.65
		c0.04,1.31-0.19,2.51-1.04,3.55C186.95,129.3,186.85,129.58,186.65,129.93z M133.75,106.91c0.01-0.07,0.02-0.13,0.02-0.2
		c-0.13-0.08-0.24-0.18-0.38-0.25c-0.98-0.54-1.99-1.05-2.95-1.63c-1.14-0.69-2.38-1.11-3.66-1.26c-2.62-0.3-5.06,0.34-7.22,1.9
		c-1.14,0.82-2.26,1.67-3.37,2.52c-2.07,1.58-4.32,2.7-7.01,2.63c-0.14,0-0.29,0.05-0.6,0.11c0.45,0.33,0.75,0.62,1.1,0.81
		c1.18,0.6,2.44,0.89,3.76,0.93c2.36,0.07,4.5-0.7,6.56-1.76c0.8-0.41,1.56-0.91,2.29-1.44c1.02-0.75,2.11-1.36,3.36-1.54
		c1.84-0.26,3.69-0.41,5.53-0.6C132.04,107.02,132.9,106.97,133.75,106.91z M183.34,153.98c0.05,0,0.1,0.01,0.13-0.01
		c0.08-0.05,0.15-0.12,0.24-0.17c0.93-0.52,1.3-1.51,1.94-2.28c1.06-1.29,1.22-2.69,0.67-4.22c-0.43-1.19-1.14-2.21-2.01-3.12
		c-1.5-1.57-3.01-3.13-4.54-4.68c-1.17-1.19-1.73-2.66-2.07-4.24c-0.13-0.59-0.25-1.18-0.41-1.9c-0.46,2.34-0.89,4.51-1.29,6.68
		c-0.08,0.42-0.1,0.87-0.02,1.28c0.28,1.56,1.06,2.89,2.04,4.1c1.02,1.26,2.12,2.45,3.19,3.67c0.83,0.95,1.49,1.99,1.75,3.25
		C183.07,152.88,183.21,153.43,183.34,153.98z M115.94,155.85c0.06,0,0.12,0.01,0.18,0.01c0.08-0.18,0.16-0.36,0.24-0.54
		c0.43-0.97,0.76-2,1.31-2.89c1.1-1.79,2.6-3.23,4.33-4.41c0.34-0.23,0.71-0.43,1.03-0.69c1.09-0.87,1.37-2.07,1.12-3.35
		c-0.24-1.22-0.65-2.4-1-3.59c-0.06-0.19-0.19-0.37-0.3-0.58c-0.38,0.34-0.67,0.68-1.03,0.89c-0.87,0.5-1.75,1.01-2.68,1.38
		c-1.58,0.64-2.88,1.63-3.98,2.9c-1.33,1.53-1.93,3.3-1.49,5.31c0.21,0.94,0.46,1.93,1.27,2.55c0.45,0.34,0.6,0.73,0.67,1.24
		C115.7,154.67,115.83,155.25,115.94,155.85z M147.82,94.97c-0.15-0.9-0.81-1.61-1.64-1.76c-2.46-0.44-4.48,0.29-6.02,2.28
		c-0.17,0.22-0.33,0.44-0.51,0.65c-0.31,0.38-0.64,0.34-0.97,0.03c-0.24-0.23-0.44-0.56-0.73-0.68c-2.03-0.83-4.14-1.19-6.09,0.06
		c-1.3,0.83-2.41,1.95-3.74,3.05c0.63,0.31,1.09,0.54,1.56,0.77c1.96,0.96,3.95,1.83,6.1,2.23c1.27,0.23,2.52,0.12,3.53-0.75
		c0.83-0.72,1.58-1.53,2.35-2.32c0.39-0.39,0.73-0.83,1.11-1.23C144.14,95.87,145.74,94.94,147.82,94.97z M154.78,73.39
		c0.08,0.31,0.12,0.5,0.17,0.69c0.45,1.62,0.61,3.29,0.37,4.93c-0.38,2.56-1.23,4.98-2.7,7.15c-0.3,0.45-0.18,1.21,0.23,1.52
		c1.49,1.14,3.53,1,4.83-0.31c0.22-0.22,0.48-0.42,0.69-0.65c0.22-0.25,0.43-0.51,0.6-0.8c0.22-0.37,0.4-0.77,0.58-1.16
		c0.19-0.43,0.45-0.85,0.53-1.31c0.27-1.59,0.51-3.2,0.67-4.8c0.05-0.52-0.05-1.14-0.31-1.58c-1.09-1.79-2.68-2.99-4.68-3.61
		C155.48,73.38,155.16,73.41,154.78,73.39z M158.53,101.71c0.09,1.24,0.83,1.98,2.02,2.27c1.76,0.44,3.53,0.85,5.3,1.24
		c2.05,0.45,4.1,0.91,5.9,2.06c0.44,0.28,0.89,0.61,1.23,1c0.78,0.88,1.49,1.82,2.23,2.73c0.07-0.04,0.11-0.05,0.13-0.07
		c0.05-0.08,0.1-0.17,0.14-0.26c0.58-1.21,0.5-2.5,0.45-3.78c-0.09-2.04-1.17-3.42-2.96-4.29c-0.85-0.41-1.71-0.82-2.57-1.21
		c-0.23-0.11-0.48-0.18-0.73-0.23c-1.88-0.4-3.75-0.39-5.65-0.06C162.21,101.42,160.37,101.52,158.53,101.71z M156.13,64.09
		c-0.17,0.34-0.3,0.63-0.45,0.9c-0.65,1.2-1.72,1.93-2.89,2.54c-0.94,0.49-1.52,1.24-1.65,2.31c-0.08,0.72,0.23,1.4,0.91,1.64
		c0.65,0.23,1.36,0.32,2.06,0.42c0.6,0.09,1.23,0.03,1.82,0.16c1.57,0.36,2.93,1.15,4.17,2.17c0.3,0.25,0.6,0.5,0.99,0.83
		c0.15-0.36,0.29-0.63,0.38-0.92c0.59-1.8,1.11-3.63,2.71-4.88c0.11-0.09,0.15-0.48,0.06-0.58c-0.43-0.45-0.86-0.97-1.4-1.23
		c-0.81-0.4-1.69-0.66-2.57-0.87c-1.54-0.37-2.94-0.94-3.88-2.3C156.33,64.22,156.25,64.19,156.13,64.09z M193.67,114.94
		c0.07,0.54,0.02,1.01,0.2,1.38c0.5,1.05,1.07,2.06,1.66,3.06c0.52,0.87,1.42,1.23,2.33,1.51c1.52,0.47,4.25-1.1,4.29-3.27
		c0.01-0.43,0.03-0.87,0.05-1.3c0.03-0.88,0.6-1.6,1.52-1.91c0.84-0.28,1.46-0.08,2.09,0.68c0.24,0.29,0.49,0.57,0.78,0.81
		c0.15,0.13,0.38,0.25,0.57,0.25c0.76,0.02,1.77-0.92,1.83-1.69c0.11-1.39-0.71-2.42-1.41-3.48c-0.02-0.03-0.06-0.05-0.1-0.06
		c-0.96-0.45-1.96-0.66-2.89-0.06c-1.43,0.91-2.77,1.96-4.2,2.88c-0.92,0.59-1.93,1.06-2.92,1.54c-0.73,0.35-1.5,0.3-2.26,0.08
		C194.75,115.22,194.29,115.11,193.67,114.94z M179.23,161.42c-0.05-0.02-0.1-0.05-0.15-0.07c-3.21,4.22-6.79,8.07-11.03,11.47
		c1.04,0.59,1.93,1.13,2.85,1.61c1.36,0.71,2.78,1.18,4.37,1.07c0.78-0.05,1.33-0.37,1.66-1.04c0.28-0.58,0.53-1.18,0.69-1.8
		c0.46-1.79,0.59-3.61,0.63-5.46c0.04-1.79,0.16-3.59,0.86-5.29C179.17,161.76,179.19,161.59,179.23,161.42z M122.19,165
		c-0.02,0.32-0.04,0.55-0.04,0.78c-0.02,2.27-0.04,4.54-0.04,6.81c0,1.04,0.05,2.09,0.12,3.13c0.1,1.53,1.68,2.26,2.8,2.09
		c0.51-0.08,1.01-0.29,1.49-0.5c1.47-0.64,2.92-1.29,4.37-1.96c0.23-0.11,0.41-0.31,0.71-0.54c-2.1-1.16-3.6-2.84-5.09-4.49
		C125,168.67,123.67,166.85,122.19,165z M181.48,130.27c0.69,0.52,1.24,1.01,1.87,1.37c0.55,0.32,1.17,0.53,1.78,0.73
		c0.36,0.12,0.58-0.08,0.5-0.48c-0.09-0.44-0.22-0.88-0.33-1.31c-0.14-0.59-0.19-1.12,0.34-1.62c0.36-0.34,0.56-0.85,0.81-1.3
		c0.05-0.09,0.06-0.24,0.01-0.33c-0.93-1.73-2.33-2.85-4.25-3.32c-0.83-0.2-1.62-0.24-2.38,0.23c-0.83,0.5-1.26,1.28-1.6,2.14
		c-0.02,0.06,0.01,0.16,0.04,0.22c0.79,1.49,0.66,3.1,0.63,4.69c-0.02,1.38-0.13,2.77,0.26,4.12c0.09,0.32,0.25,0.62,0.37,0.93
		C179.9,134.21,180.02,132.1,181.48,130.27z M181.7,132.41c0.15,0.38,0.32,0.61,0.29,0.8c-0.22,1.39,0.38,2.47,1.28,3.4
		c0.69,0.71,1.48,1.31,2.21,1.98c0.8,0.73,1.64,1.43,2.05,2.49c0.07,0.18,0.28,0.37,0.46,0.43c1.19,0.4,2.41,0.5,3.7,0.4
		c-0.04-0.14-0.05-0.22-0.09-0.28c-1.1-1.34-1.33-2.95-1.42-4.61c-0.05-0.94-0.17-1.89-0.36-2.81c-0.3-1.4-1.36-2.13-2.61-2.77
		c-0.05,0.67-0.08,1.23-0.14,1.8c-0.04,0.4-0.27,0.68-0.69,0.67c-1.29-0.03-2.56-0.13-3.63-1
		C182.49,132.69,182.14,132.61,181.7,132.41z M119.9,115.82c0.07,0.01,0.13,0.03,0.2,0.04c0.16-0.24,0.33-0.49,0.48-0.73
		c0.51-0.82,0.99-1.66,1.53-2.46c0.59-0.87,1.48-1.44,2.43-1.71c2.44-0.69,4.91-0.45,7.3,0.29c1.37,0.42,2.74,0.6,4.14,0.41
		c2.79-0.38,4.94-1.96,6.92-3.83c0.15-0.15,0.24-0.36,0.39-0.59c-0.17,0-0.23-0.02-0.28,0c-1.71,0.7-3.45,1.13-5.31,0.82
		c-0.13-0.02-0.27,0.04-0.41,0.05c-0.65,0.09-1.29,0.22-1.94,0.26c-2.13,0.14-4.27,0.2-6.39,0.39c-2.37,0.2-4.68,0.56-6.62,2.22
		c-1.11,0.96-1.78,2.09-2.21,3.42C119.98,114.85,119.97,115.35,119.9,115.82z M206.43,109.01c-0.58-1.12-0.99-2.15-1.6-3.06
		c-1.09-1.63-1.65-2.03-3.59-1.46c-0.21,0.06-0.42,0.1-0.63,0.18c-1.27,0.46-2.26,1.26-2.64,2.6c-0.57,2.03-0.37,4.01,0.65,6.01
		c0.75-0.53,1.47-1.04,2.18-1.56C202.47,110.49,203.96,108.95,206.43,109.01z M133.62,93.19c-1.44-0.84-2.77-1.94-4.58-1.78
		c-0.67,0.06-1.32,0.21-1.99,0.3c-0.84,0.12-1.7,0.41-2.51,0.31c-1.52-0.18-2.76,0.32-3.93,1.14c-0.5,0.35-0.92,0.8-1.45,1.28
		c0.34,0.08,0.52,0.1,0.68,0.16c1.68,0.62,3.38,1.21,5.03,1.9c0.98,0.41,1.96,0.4,2.96,0.25c0.19-0.03,0.4-0.17,0.54-0.32
		C129.84,94.94,131.45,93.68,133.62,93.19z M94.93,112.78c-0.05,0.03-0.1,0.06-0.15,0.09c0.86,1.52,0.97,3-0.11,4.44
		c-1.04,1.39-2.42,2.04-4.16,1.94c-0.16,0.75,0.12,1.29,0.62,1.72c0.36,0.31,0.77,0.56,1.14,0.84c1.24,0.95,3.45,0.97,4.75,0.11
		c1.66-1.1,2.28-2.72,2.38-4.59c0.06-1.08-0.22-2.12-1.23-2.73C97.11,113.96,96.01,113.39,94.93,112.78z M178.07,82.62
		c0.13,0.27,0.18,0.44,0.28,0.58c0.89,1.35,2.25,1.89,3.75,2.07c0.92,0.11,1.85,0.04,2.78,0.03c2.49-0.03,4.98-0.07,7.47-0.11
		c0.3-0.01,0.61-0.06,0.91-0.09c0.05-0.08,0.1-0.17,0.15-0.25c-0.23-0.15-0.46-0.3-0.68-0.45c-0.91-0.62-1.79-1.31-2.75-1.86
		c-0.74-0.42-1.57-0.78-2.4-0.96c-2.11-0.48-4.21-0.07-6.29,0.31C180.26,82.08,179.23,82.36,178.07,82.62z M138.05,112.8
		c-1.62,0.43-3.22,0.32-4.81,0.24c-0.08,0-0.17-0.01-0.23,0.02c-1.59,0.72-3.31,1.3-4.15,3.04c-0.33,0.67-0.61,1.37-0.86,2.08
		c-0.45,1.28-0.68,2.6-0.61,3.96c0.03,0.56,0.28,0.8,0.73,0.61c0.56-0.23,1.09-0.47,1.41-1.09c0.6-1.13,1.23-2.26,1.97-3.3
		c0.5-0.7,1.16-1.34,1.87-1.85c0.83-0.59,1.8-0.98,2.67-1.51C136.91,114.46,137.5,113.65,138.05,112.8z M95.19,89.78
		c-0.34-0.23-0.58-0.44-0.86-0.59c-0.53-0.28-0.5-0.57-0.16-1.01c1.17-1.52,2.29-3.08,3.46-4.6c0.3-0.39,0.28-0.64-0.09-0.92
		c-0.46-0.35-0.9-0.71-1.35-1.07c-0.3-0.23-0.53-0.13-0.76,0.14c-1.96,2.38-3.85,4.82-5.37,7.52c-0.23,0.41-0.44,0.82-0.68,1.26
		c1.47,0.86,2.86,1.68,4.38,2.57C93.43,91.55,94.25,90.67,95.19,89.78z M97.56,89.49c0.05,0.05,0.11,0.1,0.16,0.16
		c0.04,0.01,0.08,0.04,0.11,0.02c0.11-0.04,0.21-0.1,0.32-0.15c2.1-1.04,4.16-2.16,6.46-2.78c3.04-0.82,6.12-1.11,9.22-0.75
		c1.42,0.16,2.8,0.67,4.2,1.01c0.21,0.05,0.43,0.05,0.72,0.08c-0.09-0.27-0.13-0.44-0.21-0.59c-0.54-1.12-1.13-2.21-2.43-2.61
		c-1.88-0.58-3.81-0.64-5.75-0.41c-2.5,0.3-4.74,1.34-6.98,2.38c-1.81,0.85-3.55,1.82-5.08,3.11
		C98.07,89.14,97.81,89.31,97.56,89.49z M110.72,145.29c0.24,0.68,0.4,1.26,0.66,1.78c0.1,0.2,0.43,0.32,0.68,0.39
		c0.07,0.02,0.26-0.29,0.34-0.47c0.4-0.9,0.61-1.94,1.2-2.67c1.11-1.36,2.45-2.52,4.12-3.21c0.73-0.3,1.47-0.59,2.15-0.99
		c0.7-0.41,1.41-0.88,1.98-1.45c0.81-0.82,0.57-2.91-0.33-3.63c-0.28-0.22-0.49-0.24-0.72,0.11c-0.36,0.54-0.76,1.06-1.17,1.56
		c-1.58,1.89-3.72,3.11-5.58,4.66c-0.85,0.71-1.66,1.47-2.39,2.29C111.23,144.11,111.02,144.75,110.72,145.29z M143.85,82.28
		c-0.35-0.02-0.68-0.01-1-0.05c-0.33-0.04-0.75-0.03-0.96-0.22c-0.78-0.71-1.64-1.32-2.02-2.41c-0.55-1.58-1.51-2.79-3.31-3.14
		c-0.85-0.17-1.8-0.06-2.55-0.67c-0.02-0.02-0.35,0.21-0.37,0.34c-0.13,1.11,0.04,2.17,0.62,3.13c0.6,0.98,1.56,1.45,2.6,1.85
		c0.46,0.18,1.06,0.39,1.26,0.77c0.63,1.2,1.73,1.58,2.87,1.9C141.85,84.03,143.4,83.18,143.85,82.28z M130.38,112.42
		c-1.32-0.38-2.58-0.28-3.84-0.25c-1.55,0.04-2.84,0.7-3.65,1.98c-0.77,1.2-1.32,2.54-1.95,3.83c-0.13,0.28-0.17,0.61-0.2,0.92
		c-0.06,0.65,0.27,0.92,0.9,0.73c0.34-0.1,0.67-0.23,1-0.37c0.23-0.1,0.5-0.18,0.67-0.36c0.89-0.93,1.75-1.91,2.65-2.83
		c0.41-0.42,0.88-0.78,1.34-1.16C128.29,114.1,129.29,113.3,130.38,112.42z M157.87,176.98c-1.01-0.55-2.03-1-2.92-1.64
		c-0.9-0.65-1.65-1.51-2.49-2.26c-0.81-0.72-1.77-1.1-2.88-1.03c-0.78,0.05-0.94,0.31-0.75,1.08c0.75,2.96,3.18,5.16,6.22,5.63
		C156.62,179.02,157.41,178.51,157.87,176.98z M177.16,109.54c-0.19,0.64-0.38,1.24-0.53,1.84c-0.03,0.1,0.1,0.28,0.2,0.37
		c0.99,0.99,2.2,1.46,3.6,1.58c1.81,0.16,3.1-0.54,3.82-2.2c0.05-0.13,0.1-0.26,0.18-0.37c0.29-0.4,0.66-0.39,0.97,0
		c0.15,0.2,0.31,0.42,0.51,0.56c0.94,0.65,1.73,1.44,2.33,2.41c0.08,0.13,0.21,0.24,0.32,0.35c0.06-0.03,0.13-0.05,0.19-0.08
		c-0.11-0.55-0.11-1.14-0.34-1.63c-0.66-1.43-1.77-2.49-3.1-3.31c-0.12-0.07-0.31-0.12-0.42-0.08c-0.32,0.14-0.66,0.29-0.92,0.52
		c-0.7,0.62-1.53,0.78-2.42,0.8C180.04,110.35,178.58,110.14,177.16,109.54z M139.4,127.96c-2.13-0.84-4.32-0.87-6.49,0.21
		c-1.16,0.58-1.17,0.56-0.96,1.87c0.01,0.08,0.04,0.17,0.02,0.23c-0.15,0.43,0.13,0.56,0.44,0.68c2,0.82,4.02,0.91,6.07,0.17
		c0.91-0.33,1.22-0.89,1.05-1.84C139.46,128.88,139.45,128.46,139.4,127.96z M92.56,110.16c-0.48,0.12-1.06,0.19-1.56,0.42
		c-0.59,0.26-1.17,0.6-1.65,1.03c-0.33,0.29-0.63,0.74-0.69,1.17c-0.11,0.69-0.04,1.42-0.02,2.12c0.03,1.2,1.01,2.34,2.18,2.55
		c1.12,0.19,2.45-0.64,3.01-1.88c0.27-0.59,0.13-1.27-0.3-1.47c-0.41-0.19-1.07,0.14-1.41,0.6c-0.16,0.21-0.51,0.44-0.73,0.41
		c-0.23-0.03-0.51-0.36-0.58-0.61c-0.26-0.97,0.6-2.03,1.78-2.21c0.49-0.07,1-0.01,1.52-0.01
		C93.59,111.59,93.12,110.94,92.56,110.16z M109.46,144.17c0.14-0.17,0.2-0.22,0.24-0.28c0.79-1.43,1.97-2.5,3.21-3.52
		c1.89-1.54,4.02-2.78,5.69-4.61c0.91-1,1.3-2.1,1.2-3.4c-0.02-0.32-0.19-0.63-0.29-0.95c-0.36,0.53-0.54,1.04-0.76,1.54
		c-0.83,1.91-1.9,3.54-4.28,3.65c-0.13,0.01-0.31,0.16-0.36,0.29c-0.23,0.51-0.37,1.06-0.62,1.55c-0.47,0.91-1.22,1.43-2.29,1.41
		c-0.38-0.01-0.75-0.05-1.12-0.01c-0.19,0.02-0.45,0.13-0.52,0.27c-0.51,1.08-0.76,2.2-0.4,3.39
		C109.22,143.71,109.33,143.89,109.46,144.17z M121.96,121.29c-0.68-0.1-1.26-0.22-1.84-0.25c-0.46-0.02-0.99-0.04-1.38,0.15
		c-1.02,0.5-1.81,1.28-2.12,2.41c-0.11,0.42-0.17,0.92-0.04,1.32c0.29,0.96,2.69,1.65,3.47,1.02c0.65-0.53,1.27-1.09,1.25-2.08
		c-0.01-0.49,0.22-0.99,0.35-1.49C121.73,122.03,121.84,121.67,121.96,121.29z M126.31,73.22c-0.01,0.08-0.03,0.15-0.04,0.23
		c0.51,0.19,1,0.48,1.52,0.55c1.67,0.21,3.31-0.04,4.76-0.88c1.98-1.15,3.88-2.44,5.81-3.67c0.02-0.01,0-0.07,0-0.17
		C134.16,70.06,130.14,71.35,126.31,73.22z M150.76,178.68c-0.05-0.1-0.07-0.17-0.11-0.2c-0.89-0.87-1.76-1.75-2.28-2.92
		c-0.05-0.11-0.19-0.24-0.3-0.25c-1.1-0.11-2.2-0.22-3.26,0.26c-0.42,0.19-0.55,0.46-0.4,0.89c0.49,1.42,1.31,2.45,2.91,2.68
		C148.51,179.3,149.66,179.27,150.76,178.68z M187.29,146.11c0.05-0.01,0.11-0.02,0.16-0.03c0.03-0.25,0.08-0.5,0.09-0.74
		c0.07-1.7-0.66-3.17-1.71-4.37c-1.36-1.55-2.96-2.89-4.46-4.33c-0.05,0.39-0.03,0.76,0.1,1.09c0.34,0.89,0.55,1.92,1.14,2.63
		C184.18,142.26,186.16,143.83,187.29,146.11z M126.62,117.74c-0.05-0.04-0.1-0.07-0.16-0.11c-0.33,0.29-0.69,0.55-0.98,0.87
		c-1.15,1.25-1.89,2.75-2.59,4.28c-0.48,1.05,0.21,1.86,0.31,2.85c1.28-0.46,2.06-1.33,2.76-2.29c0.11-0.15,0.12-0.42,0.09-0.62
		c-0.23-1.4-0.01-2.75,0.38-4.09C126.52,118.34,126.56,118.03,126.62,117.74z M123.9,148.58c-0.25,0.12-0.46,0.2-0.65,0.32
		c-1.65,1.1-2.98,2.53-4.12,4.14c-0.93,1.31-1.4,2.78-1.36,4.39c0.01,0.2,0.18,0.4,0.27,0.6c0.11-0.16,0.29-0.3,0.33-0.48
		c0.39-1.78,1.46-3.12,2.79-4.3c0.66-0.59,1.33-1.18,1.97-1.8C123.91,150.69,124.07,149.73,123.9,148.58z M175.2,143.58
		c-1.7,2.65-1.45,5.68,0.18,7.02c0.59-1.31,1.16-2.57,1.72-3.84c0.04-0.09,0-0.24-0.06-0.33
		C176.44,145.49,175.83,144.55,175.2,143.58z M198.78,85.57c0.74,0.89,1.83,0.91,2.71,1.33c0.89,0.43,1.83,0.75,2.74,1.12
		c-0.18-0.5-0.42-0.88-0.7-1.23c-0.73-0.93-1.48-1.84-2.23-2.76c-0.2-0.25-0.43-0.32-0.7-0.06C200.03,84.5,199.44,85,198.78,85.57z
		 M87.31,117.13c-0.75-1.79-0.68-3.63-0.16-5.62c-0.83,0.94-1.55,1.74-2.25,2.55c-0.05,0.06-0.08,0.19-0.06,0.27
		c0.1,0.58,0.13,1.18,0.33,1.73C85.54,117.11,86.08,117.37,87.31,117.13z M84.58,99.91c0.05,0.03,0.11,0.07,0.16,0.1
		c1.07-0.9,2.15-1.81,3.27-2.75c-0.43-0.21-0.82-0.38-1.21-0.58c-0.47-0.24-0.76-0.12-0.95,0.39c-0.18,0.48-0.44,0.93-0.65,1.4
		C84.98,98.94,84.78,99.43,84.58,99.91z M84.21,117.3c-0.05,0.02-0.09,0.03-0.14,0.05c-0.06,0.63-0.14,1.27-0.18,1.9
		c-0.01,0.1,0.16,0.28,0.27,0.3c0.79,0.13,1.58,0.22,2.4,0.33c0.06-0.36,0.11-0.62,0.17-0.95C85.55,118.88,84.72,118.33,84.21,117.3
		z M121.51,133.52c0.05,0.01,0.11,0.01,0.16,0.02c0.03-0.06,0.1-0.12,0.1-0.18c-0.09-1.45-0.18-2.9-0.28-4.36
		c-0.01-0.09-0.15-0.25-0.2-0.24c-0.28,0.07-0.59,0.12-0.81,0.29c-0.27,0.2-0.31,0.5-0.1,0.83c0.57,0.95,1.01,1.95,1,3.1
		C121.37,133.16,121.46,133.34,121.51,133.52z M201.72,102.87c-1.24-0.66-2.45-1.05-3.97-0.9c0.45,0.31,0.78,0.49,1.05,0.74
		c0.27,0.24,0.48,0.54,0.75,0.85C200.21,103.35,200.92,103.12,201.72,102.87z M118.83,77.55c-0.04-0.05-0.07-0.1-0.11-0.15
		c-2.09,1.24-4.06,2.66-6.02,4.35c0.51,0,0.84,0.03,1.17-0.01c0.15-0.02,0.33-0.13,0.4-0.26c0.67-1.1,1.62-1.93,2.64-2.68
		C117.54,78.35,118.2,77.97,118.83,77.55z M91.84,108.23c-0.03-0.5-0.06-1.03-0.1-1.74c-0.96,0.93-1.82,1.76-2.68,2.59
		c0.04,0.04,0.08,0.08,0.11,0.12C90.05,108.89,90.93,108.57,91.84,108.23z M110.99,134.6c-0.11-0.41-0.2-0.75-0.28-1.09
		c-0.09-0.36-0.14-0.75-0.29-1.08c-0.1-0.23-0.35-0.4-0.54-0.6c-0.23,0.25-0.59,0.48-0.65,0.77
		C109.1,133.2,110.23,134.47,110.99,134.6z M212.63,93.67c0.03-0.03,0.07-0.06,0.1-0.09c-0.36-0.61-0.7-1.22-1.07-1.81
		c-0.5-0.8-0.59-0.81-1.4-0.16C211.06,92.3,211.84,92.98,212.63,93.67z M217.63,119.62c0.85-0.12,1.62-0.22,2.4-0.35
		c0.12-0.02,0.22-0.2,0.33-0.3c-0.13-0.04-0.29-0.14-0.4-0.1c-0.75,0.24-1.47,0.19-2.19-0.11c-0.07-0.03-0.18,0.01-0.29,0.02
		C217.53,119.05,217.57,119.28,217.63,119.62z M142.37,129.79c-0.66-0.5-1.18-0.89-1.76-1.33c0.07,0.67,0.13,1.22,0.2,1.84
		C141.29,130.14,141.73,130,142.37,129.79z M130.86,75.38c-0.01,0.08-0.02,0.15-0.03,0.23c0.41,0.11,0.83,0.22,1.24,0.34
		c0.06-0.32,0.12-0.64,0.2-1.06C131.69,75.09,131.28,75.24,130.86,75.38z M129.87,129.25c-0.01,0.05-0.02,0.1-0.04,0.14
		c0.21,0.15,0.42,0.31,0.63,0.46c0.08-0.28,0.09-0.55-0.03-0.65C130.33,129.13,130.07,129.23,129.87,129.25z"/>
	<path id="XMLID_461_" d="M166.15,126.14c-0.29-0.21-0.51-0.41-0.75-0.55c-2.68-1.54-5.35-1.39-8,0.11
		c-0.45,0.25-0.84,0.59-1.29,0.84c-0.14,0.08-0.42,0.11-0.52,0.02c-0.11-0.09-0.14-0.36-0.09-0.52c0.06-0.19,0.21-0.38,0.37-0.52
		c1.42-1.3,3.15-1.81,5.03-2c1.86-0.19,3.62-0.03,5.21,1.1c0.67,0.48,1.4,0.88,2.14,1.25c1.6,0.79,3.12,0.29,4.04-1.27
		c0.13-0.22,0.28-0.44,0.48-0.59c0.13-0.1,0.4-0.18,0.52-0.11c0.14,0.08,0.23,0.32,0.24,0.5c0.01,0.18-0.08,0.39-0.18,0.55
		c-0.89,1.56-2.15,2.55-4.04,2.51c-0.12,0-0.24,0.01-0.35,0.02c-0.03,0-0.06,0.04-0.09,0.07c0.92,0.85,0.94,0.97-0.13,1.73
		c-1.91,1.35-3.92,2.47-6.33,2.58c-0.59,0.03-1.2,0.04-1.77-0.1c-1.59-0.38-3.17-0.82-4.74-1.28c-0.64-0.19-0.82-0.8-0.61-1.43
		c0.83-2.6,3.03-3.18,5.3-3.52c1.62-0.25,3.23,0.08,4.8,0.56c0.17,0.05,0.34,0.09,0.52,0.12
		C165.93,126.22,165.98,126.19,166.15,126.14z M158.08,127.38c0.08,0.44,0.2,0.75,0.18,1.07c-0.04,1.06,0.47,1.76,1.51,1.98
		c2,0.43,3.94,0.47,5.82-0.55c0.8-0.44,0.87-0.47,0.79-1.41c-0.04-0.42-0.19-0.7-0.59-0.86c-0.49-0.2-0.95-0.49-1.46-0.64
		C162.18,126.32,160.06,126.37,158.08,127.38z M155.89,128.95c0.05,0.1,0.1,0.2,0.15,0.3c0.36,0.13,0.71,0.27,1.15,0.43
		c-0.06-0.57-0.1-1.02-0.15-1.47c-0.07-0.05-0.13-0.09-0.2-0.14C156.52,128.36,156.2,128.65,155.89,128.95z"/>
	<path id="XMLID_460_" d="M157.85,153.15c-0.07-0.15-0.13-0.27-0.17-0.4c-0.15-0.49,0.13-0.81,0.62-0.66
		c0.96,0.29,1.47,1.08,1.92,1.89c0.06,0.1-0.04,0.39-0.14,0.44c-0.17,0.08-0.45,0.13-0.59,0.04c-0.36-0.22-0.68-0.15-1.06-0.07
		c-1.23,0.28-2.46,0.6-3.71,0.68c-0.72,0.05-1.51-0.25-2.21-0.53c-0.9-0.36-1.7-0.54-2.54,0.16c-0.72,0.6-1.54,0.68-2.36,0.15
		c-1.04-0.66-2.15-0.69-3.3-0.33c-0.73,0.24-1.46,0.48-2.21,0.68c-0.96,0.26-1.92,0.26-2.82-0.26c-0.38-0.22-0.68-0.17-0.94,0.16
		c-0.27,0.35-0.56,0.33-0.87,0.09c-0.33-0.26-0.33-0.59-0.1-0.89c0.32-0.42,0.65-0.85,1.04-1.21c0.59-0.54,1.01-0.39,1.27,0.36
		c0.05,0.15,0.32,0.31,0.48,0.31c0.92-0.03,1.85-0.08,2.77-0.17c0.41-0.04,0.81-0.19,1.2-0.31c1.33-0.4,2.62-0.32,3.87,0.28
		c0.46,0.22,0.88,0.23,1.28-0.04c1.06-0.69,2.16-0.64,3.3-0.27c1.59,0.51,3.19,0.77,4.81,0.09
		C157.54,153.29,157.68,153.23,157.85,153.15z"/>
	<path id="XMLID_459_" d="M145.54,125.37c0.89-0.58,1.08-0.52,1.24,0.5c0.09,0.58,0.08,1.18,0.06,1.76
		c-0.06,1.79-0.19,3.59-0.22,5.38c-0.02,1.1,0.19,2.21,0.13,3.31c-0.04,0.94-0.29,1.87-0.48,2.8c-0.27,1.26-0.55,2.51-0.19,3.81
		c0.37,1.35,1.07,1.91,2.47,1.92c0.43,0,0.87-0.02,1.3-0.04c0.32-0.02,0.53,0.07,0.58,0.43c0.05,0.33-0.07,0.5-0.37,0.64
		c-1.58,0.74-4.17,0.14-4.91-1.99c-0.54-1.54-0.51-3.09-0.08-4.61c0.56-2,0.72-3.97,0.37-6.03c-0.15-0.87,0.07-1.8,0.08-2.71
		C145.55,128.81,145.54,127.08,145.54,125.37z"/>
	<path id="XMLID_458_" d="M153.81,124.44c0.14-0.12,0.22-0.25,0.34-0.29c1.14-0.41,1.89-1.32,2.74-2.11
		c0.71-0.66,1.43-1.35,2.43-1.61c0.65-0.17,1.27-0.47,1.92-0.6c1.01-0.19,2.02-0.19,3.03,0.21c1.59,0.64,3.21,1.22,4.84,1.75
		c1.22,0.4,2.48,0.42,3.75,0.13c0.28-0.06,0.6,0.06,0.9,0.1c-0.23,0.2-0.43,0.48-0.69,0.59c-1.45,0.62-2.94,0.33-4.37,0
		c-1.18-0.27-2.3-0.79-3.44-1.22c-1.27-0.48-2.62-0.89-3.92-0.54c-1.42,0.39-2.87,0.87-3.9,2.09c-0.52,0.61-1.16,1.13-1.8,1.61
		C155.1,124.95,154.31,124.85,153.81,124.44z"/>
	<path id="XMLID_457_" d="M150.75,158.1c-1.11-0.12-2.2-0.27-3.31-0.34c-0.6-0.03-1.22,0.03-1.81,0.16
		c-1.29,0.27-2.55,0.32-3.78-0.23c-0.28-0.13-0.58-0.29-0.77-0.53c-0.15-0.19-0.15-0.51-0.22-0.78c0.25-0.02,0.52-0.1,0.75-0.04
		c0.38,0.09,0.73,0.36,1.1,0.38c1,0.04,2-0.02,3.01-0.02c1.04,0,2.11-0.11,3.12,0.08c2.27,0.42,4.4,0.02,6.51-0.72
		c0.41-0.14,0.77-0.15,0.88,0.24c0.05,0.18-0.25,0.63-0.48,0.72C154.14,157.59,152.48,158.03,150.75,158.1z"/>
	<path id="XMLID_456_" d="M153.75,151.9c-0.52-0.18-1.14-0.37-1.74-0.62c-0.87-0.36-1.68-0.54-2.6,0c-0.31,0.18-0.92-0.02-1.34-0.19
		c-0.67-0.28-1.25-0.15-1.87,0.13c-0.61,0.27-1.23,0.55-1.88,0.69c-0.46,0.09-0.97-0.02-1.45-0.11c-0.14-0.02-0.25-0.26-0.37-0.39
		c0.15-0.13,0.33-0.4,0.45-0.38c1.3,0.25,2.31-0.53,3.42-0.93c0.76-0.28,1.51-0.39,2.3-0.04c0.21,0.09,0.58-0.01,0.81-0.14
		c0.97-0.57,1.89-0.43,2.8,0.1c0.71,0.41,1.38,0.92,2.27,0.93c0.12,0,0.31,0.25,0.32,0.4c0.01,0.12-0.18,0.31-0.32,0.38
		C154.35,151.82,154.11,151.83,153.75,151.9z"/>
	<path id="XMLID_455_" d="M139.87,145.22c0.01-0.05-0.01-0.18,0.04-0.24c0.15-0.15,0.32-0.31,0.51-0.37
		c0.06-0.02,0.3,0.26,0.32,0.41c0.1,0.88,0.39,1.09,1.25,0.9c0.82-0.18,1.65-0.38,2.49-0.47c0.93-0.1,1.74,0.29,2.41,0.92
		c0.12,0.12,0.13,0.36,0.19,0.55c-0.19,0.03-0.41,0.14-0.55,0.07c-1.07-0.5-2.14-0.4-3.24-0.11c-0.51,0.14-1.04,0.24-1.57,0.25
		C140.74,147.15,139.88,146.25,139.87,145.22z"/>
	<path id="XMLID_454_" d="M156.69,144.12c-0.01,1.07-0.56,1.75-1.79,2.02c-0.75,0.16-1.52,0.18-2.29,0.25
		c-0.49,0.04-0.98,0.09-1.47,0.08c-0.2,0-0.4-0.16-0.6-0.24c0.14-0.17,0.26-0.44,0.43-0.49c0.59-0.15,1.19-0.24,1.79-0.33
		c0.6-0.09,1.22-0.1,1.8-0.26c0.59-0.16,1.05-0.54,1.09-1.25c0.01-0.12,0.03-0.27,0.1-0.33c0.18-0.15,0.39-0.31,0.61-0.35
		c0.07-0.01,0.24,0.3,0.31,0.49C156.73,143.82,156.69,143.98,156.69,144.12z"/>
	<path id="XMLID_453_" d="M155.67,133.65c-0.25-0.2-0.55-0.35-0.73-0.6c-0.95-1.27-1.57-2.68-1.73-4.27
		c-0.02-0.17,0.1-0.35,0.15-0.52c0.18,0.1,0.41,0.16,0.52,0.3c0.14,0.2,0.18,0.47,0.28,0.71c0.46,1.06,0.94,2.12,1.39,3.19
		c0.14,0.33,0.22,0.69,0.33,1.04C155.8,133.54,155.74,133.6,155.67,133.65z"/>
	<path id="XMLID_452_" d="M150.73,148.29c0.08,0.59-0.23,0.97-0.67,0.98c-0.58,0.02-1.18-0.17-1.76-0.3
		c-0.06-0.01-0.14-0.27-0.1-0.33c0.08-0.1,0.24-0.19,0.37-0.19c0.35,0,0.71,0.09,1.06,0.06
		C149.98,148.5,150.32,148.38,150.73,148.29z"/>
</g>
</svg>
