<?xml version="1.0" encoding="utf-8"?>
<!-- Generator: Adobe Illustrator 24.2.0, SVG Export Plug-In . SVG Version: 6.00 Build 0)  -->
<svg version="1.1" id="Layer_1" xmlns="http://www.w3.org/2000/svg" xmlns:xlink="http://www.w3.org/1999/xlink" x="0px" y="0px"
	 viewBox="0 0 1000 1000" style="enable-background:new 0 0 1000 1000;" xml:space="preserve">
<style type="text/css">
	.st0{fill:#010101;}
</style>
<g>
	<path class="st0" d="M871.7,663.9L749,326l-0.1-0.2h-2.4l-25.3,69.4l-46,126.4l-0.1-0.1c-15.9-14.1-38.4-22.9-66.8-26.1l-8.6-0.9
		l8.6-1.1c46.7-8.4,78.1-37.9,78.1-73.5c0-48.8-45.9-82.8-111.5-82.8H438.1v2.5h39.7v251.9L381.4,326l-0.1-0.2h-2.4l-25.3,69.4
		L256.2,663l-0.6,0.1c-1.7,0.2-3.3,0.4-4.9,0.5c-2.5,0.2-4.9,0.3-7.3,0.3h-98.5L332,339.6l1.4-2.4h-229v100.3h2.4
		c0.4-48.9,28.9-97.9,91.8-97.9h75.9L85.8,666.3h254.1v-96.1h-2.4c-0.3,42.6-24.5,83-77,92.2l-1.7,0.3l40-109.9h112l40.4,111.1
		h-39.8v2.4h156.3v-2.4h-40V496.3h46.1c46.9,0,73.9,21,73.9,57.5v29.7c0,3.3,0.2,8.1,0.5,12.1v0.1l-24.8,68.1H591v2.4H658v-2.4h-32
		l22.6-62c0,0.6,0.1,1,0.1,1l0.6,5.6l0.6,3.7c3.8,22.9,12.5,39.7,26,50l1.9,1.4c10.2,7.1,23,10.7,37.8,10.7
		c19.7,0,32.8-4.9,43.7-16.5l-1.4-1.3c-10,9.2-18.4,13-28.9,13c-17.9,0-27.3-21.7-27.3-43.1v-41.7c0.1-10.3-1.5-20.6-4.8-30.4
		l-0.4-1.3v0h81.9l40.4,111.1H779v2.4h135.2v-2.4L871.7,663.9z M299.7,550.4l55.2-151.6L410,550.4H299.7z M527.7,493.9V339.6h35.2
		c47,0,71.9,28,71.9,80.8c0,56.2-14.3,73.4-61,73.4H527.7z M695.5,550.4l-0.2-0.6c-3.6-8.9-8.9-17-15.6-23.8l-2.3-2.3l-0.2-0.2
		l45.3-124.6l55.1,151.6H695.5z"/>
</g>
</svg>
